<?xml version="1.0" encoding="UTF-8"?>
<svg xmlns="http://www.w3.org/2000/svg" xmlns:xlink="http://www.w3.org/1999/xlink" width="665" height="3710" style="background:#ffffffff">
<!-- Created with genesis v0.26.1 (http://genesis-lib.org) on 2022-05-15 at 12:14:09 -->
    <g transform="translate( 20, 70)" >
        <g>
            <line x1="411.765" y1="2340" x2="500" y2="2340" stroke="#cc2d47" stroke-opacity="1" stroke-width="6" stroke-linecap="round" />
            <line x1="411.765" y1="2418.75" x2="411.765" y2="2340" stroke="#cc2d47" stroke-opacity="1" stroke-width="6" stroke-linecap="round" />
            <line x1="294.118" y1="2418.75" x2="411.765" y2="2418.75" stroke="#000000" stroke-opacity="1" stroke-width="6" stroke-linecap="round" />
            <line x1="294.118" y1="2699.3" x2="294.118" y2="2418.75" stroke="#000000" stroke-opacity="1" stroke-width="6" stroke-linecap="round" />
            <line x1="441.176" y1="0" x2="500" y2="0" stroke="#000000" stroke-opacity="1" stroke-width="6" stroke-linecap="round" />
            <line x1="441.176" y1="67.5" x2="441.176" y2="0" stroke="#000000" stroke-opacity="1" stroke-width="6" stroke-linecap="round" />
            <line x1="470.588" y1="90" x2="500" y2="90" stroke="#000000" stroke-opacity="1" stroke-width="6" stroke-linecap="round" />
            <line x1="470.588" y1="135" x2="470.588" y2="90" stroke="#000000" stroke-opacity="1" stroke-width="6" stroke-linecap="round" />
            <line x1="470.588" y1="180" x2="500" y2="180" stroke="#000000" stroke-opacity="1" stroke-width="6" stroke-linecap="round" />
            <line x1="470.588" y1="135" x2="470.588" y2="180" stroke="#000000" stroke-opacity="1" stroke-width="6" stroke-linecap="round" />
            <line x1="441.176" y1="135" x2="470.588" y2="135" stroke="#000000" stroke-opacity="1" stroke-width="6" stroke-linecap="round" />
            <line x1="441.176" y1="67.5" x2="441.176" y2="135" stroke="#000000" stroke-opacity="1" stroke-width="6" stroke-linecap="round" />
            <line x1="0" y1="67.5" x2="441.176" y2="67.5" stroke="#000000" stroke-opacity="1" stroke-width="6" stroke-linecap="round" />
            <line x1="0" y1="321.525" x2="0" y2="67.5" stroke="#000000" stroke-opacity="1" stroke-width="6" stroke-linecap="round" />
            <line x1="470.588" y1="360" x2="500" y2="360" stroke="#000000" stroke-opacity="1" stroke-width="6" stroke-linecap="round" />
            <line x1="470.588" y1="405" x2="470.588" y2="360" stroke="#000000" stroke-opacity="1" stroke-width="6" stroke-linecap="round" />
            <line x1="470.588" y1="450" x2="500" y2="450" stroke="#000000" stroke-opacity="1" stroke-width="6" stroke-linecap="round" />
            <line x1="470.588" y1="405" x2="470.588" y2="450" stroke="#000000" stroke-opacity="1" stroke-width="6" stroke-linecap="round" />
            <line x1="29.4118" y1="405" x2="470.588" y2="405" stroke="#000000" stroke-opacity="1" stroke-width="6" stroke-linecap="round" />
            <line x1="29.4118" y1="575.55" x2="29.4118" y2="405" stroke="#000000" stroke-opacity="1" stroke-width="6" stroke-linecap="round" />
            <line x1="205.882" y1="1800" x2="500" y2="1800" stroke="#000000" stroke-opacity="1" stroke-width="6" stroke-linecap="round" />
            <line x1="205.882" y1="1988.35" x2="205.882" y2="1800" stroke="#000000" stroke-opacity="1" stroke-width="6" stroke-linecap="round" />
            <line x1="441.176" y1="2070" x2="500" y2="2070" stroke="#000000" stroke-opacity="1" stroke-width="6" stroke-linecap="round" />
            <line x1="441.176" y1="2137.5" x2="441.176" y2="2070" stroke="#000000" stroke-opacity="1" stroke-width="6" stroke-linecap="round" />
            <line x1="470.588" y1="2160" x2="500" y2="2160" stroke="#000000" stroke-opacity="1" stroke-width="6" stroke-linecap="round" />
            <line x1="470.588" y1="2205" x2="470.588" y2="2160" stroke="#000000" stroke-opacity="1" stroke-width="6" stroke-linecap="round" />
            <line x1="470.588" y1="2250" x2="500" y2="2250" stroke="#000000" stroke-opacity="1" stroke-width="6" stroke-linecap="round" />
            <line x1="470.588" y1="2205" x2="470.588" y2="2250" stroke="#000000" stroke-opacity="1" stroke-width="6" stroke-linecap="round" />
            <line x1="441.176" y1="2205" x2="470.588" y2="2205" stroke="#000000" stroke-opacity="1" stroke-width="6" stroke-linecap="round" />
            <line x1="441.176" y1="2137.5" x2="441.176" y2="2205" stroke="#000000" stroke-opacity="1" stroke-width="6" stroke-linecap="round" />
            <line x1="264.706" y1="2137.5" x2="441.176" y2="2137.5" stroke="#000000" stroke-opacity="1" stroke-width="6" stroke-linecap="round" />
            <line x1="264.706" y1="2418.4" x2="264.706" y2="2137.5" stroke="#000000" stroke-opacity="1" stroke-width="6" stroke-linecap="round" />
            <line x1="441.176" y1="2430" x2="500" y2="2430" stroke="#000000" stroke-opacity="1" stroke-width="6" stroke-linecap="round" />
            <line x1="441.176" y1="2497.5" x2="441.176" y2="2430" stroke="#000000" stroke-opacity="1" stroke-width="6" stroke-linecap="round" />
            <line x1="470.588" y1="2520" x2="500" y2="2520" stroke="#000000" stroke-opacity="1" stroke-width="6" stroke-linecap="round" />
            <line x1="470.588" y1="2565" x2="470.588" y2="2520" stroke="#000000" stroke-opacity="1" stroke-width="6" stroke-linecap="round" />
            <line x1="470.588" y1="2610" x2="500" y2="2610" stroke="#000000" stroke-opacity="1" stroke-width="6" stroke-linecap="round" />
            <line x1="470.588" y1="2565" x2="470.588" y2="2610" stroke="#000000" stroke-opacity="1" stroke-width="6" stroke-linecap="round" />
            <line x1="441.176" y1="2565" x2="470.588" y2="2565" stroke="#000000" stroke-opacity="1" stroke-width="6" stroke-linecap="round" />
            <line x1="441.176" y1="2497.5" x2="441.176" y2="2565" stroke="#000000" stroke-opacity="1" stroke-width="6" stroke-linecap="round" />
            <line x1="411.765" y1="2497.5" x2="441.176" y2="2497.5" stroke="#000000" stroke-opacity="1" stroke-width="6" stroke-linecap="round" />
            <line x1="411.765" y1="2418.75" x2="411.765" y2="2497.5" stroke="#000000" stroke-opacity="1" stroke-width="6" stroke-linecap="round" />
            <line x1="411.765" y1="3330" x2="500" y2="3330" stroke="#000000" stroke-opacity="1" stroke-width="6" stroke-linecap="round" />
            <line x1="411.765" y1="3408.75" x2="411.765" y2="3330" stroke="#000000" stroke-opacity="1" stroke-width="6" stroke-linecap="round" />
            <line x1="470.588" y1="3510" x2="500" y2="3510" stroke="#000000" stroke-opacity="1" stroke-width="6" stroke-linecap="round" />
            <line x1="470.588" y1="3555" x2="470.588" y2="3510" stroke="#000000" stroke-opacity="1" stroke-width="6" stroke-linecap="round" />
            <line x1="470.588" y1="3600" x2="500" y2="3600" stroke="#000000" stroke-opacity="1" stroke-width="6" stroke-linecap="round" />
            <line x1="470.588" y1="3555" x2="470.588" y2="3600" stroke="#000000" stroke-opacity="1" stroke-width="6" stroke-linecap="round" />
            <line x1="441.176" y1="3555" x2="470.588" y2="3555" stroke="#000000" stroke-opacity="1" stroke-width="6" stroke-linecap="round" />
            <line x1="441.176" y1="3487.5" x2="441.176" y2="3555" stroke="#000000" stroke-opacity="1" stroke-width="6" stroke-linecap="round" />
            <line x1="441.176" y1="3420" x2="500" y2="3420" stroke="#000000" stroke-opacity="1" stroke-width="6" stroke-linecap="round" />
            <line x1="441.176" y1="3487.5" x2="441.176" y2="3420" stroke="#000000" stroke-opacity="1" stroke-width="6" stroke-linecap="round" />
            <line x1="411.765" y1="3487.5" x2="441.176" y2="3487.5" stroke="#000000" stroke-opacity="1" stroke-width="6" stroke-linecap="round" />
            <line x1="411.765" y1="3408.75" x2="411.765" y2="3487.5" stroke="#000000" stroke-opacity="1" stroke-width="6" stroke-linecap="round" />
            <line x1="382.353" y1="3408.75" x2="411.765" y2="3408.75" stroke="#000000" stroke-opacity="1" stroke-width="6" stroke-linecap="round" />
            <line x1="382.353" y1="3301.88" x2="382.353" y2="3408.75" stroke="#000000" stroke-opacity="1" stroke-width="6" stroke-linecap="round" />
            <line x1="470.588" y1="3150" x2="500" y2="3150" stroke="#000000" stroke-opacity="1" stroke-width="6" stroke-linecap="round" />
            <line x1="470.588" y1="3195" x2="470.588" y2="3150" stroke="#000000" stroke-opacity="1" stroke-width="6" stroke-linecap="round" />
            <line x1="470.588" y1="3240" x2="500" y2="3240" stroke="#000000" stroke-opacity="1" stroke-width="6" stroke-linecap="round" />
            <line x1="470.588" y1="3195" x2="470.588" y2="3240" stroke="#000000" stroke-opacity="1" stroke-width="6" stroke-linecap="round" />
            <line x1="382.353" y1="3195" x2="470.588" y2="3195" stroke="#000000" stroke-opacity="1" stroke-width="6" stroke-linecap="round" />
            <line x1="382.353" y1="3301.88" x2="382.353" y2="3195" stroke="#000000" stroke-opacity="1" stroke-width="6" stroke-linecap="round" />
            <line x1="352.941" y1="3301.88" x2="382.353" y2="3301.88" stroke="#000000" stroke-opacity="1" stroke-width="6" stroke-linecap="round" />
            <line x1="352.941" y1="3180.94" x2="352.941" y2="3301.88" stroke="#000000" stroke-opacity="1" stroke-width="6" stroke-linecap="round" />
            <line x1="352.941" y1="3060" x2="500" y2="3060" stroke="#000000" stroke-opacity="1" stroke-width="6" stroke-linecap="round" />
            <line x1="352.941" y1="3180.94" x2="352.941" y2="3060" stroke="#000000" stroke-opacity="1" stroke-width="6" stroke-linecap="round" />
            <line x1="323.529" y1="3180.94" x2="352.941" y2="3180.94" stroke="#000000" stroke-opacity="1" stroke-width="6" stroke-linecap="round" />
            <line x1="323.529" y1="2979.84" x2="323.529" y2="3180.94" stroke="#000000" stroke-opacity="1" stroke-width="6" stroke-linecap="round" />
            <line x1="441.176" y1="2790" x2="500" y2="2790" stroke="#000000" stroke-opacity="1" stroke-width="6" stroke-linecap="round" />
            <line x1="441.176" y1="2857.5" x2="441.176" y2="2790" stroke="#000000" stroke-opacity="1" stroke-width="6" stroke-linecap="round" />
            <line x1="470.588" y1="2880" x2="500" y2="2880" stroke="#000000" stroke-opacity="1" stroke-width="6" stroke-linecap="round" />
            <line x1="470.588" y1="2925" x2="470.588" y2="2880" stroke="#000000" stroke-opacity="1" stroke-width="6" stroke-linecap="round" />
            <line x1="470.588" y1="2970" x2="500" y2="2970" stroke="#000000" stroke-opacity="1" stroke-width="6" stroke-linecap="round" />
            <line x1="470.588" y1="2925" x2="470.588" y2="2970" stroke="#000000" stroke-opacity="1" stroke-width="6" stroke-linecap="round" />
            <line x1="441.176" y1="2925" x2="470.588" y2="2925" stroke="#000000" stroke-opacity="1" stroke-width="6" stroke-linecap="round" />
            <line x1="441.176" y1="2857.5" x2="441.176" y2="2925" stroke="#000000" stroke-opacity="1" stroke-width="6" stroke-linecap="round" />
            <line x1="411.765" y1="2857.5" x2="441.176" y2="2857.5" stroke="#000000" stroke-opacity="1" stroke-width="6" stroke-linecap="round" />
            <line x1="411.765" y1="2778.75" x2="411.765" y2="2857.5" stroke="#000000" stroke-opacity="1" stroke-width="6" stroke-linecap="round" />
            <line x1="411.765" y1="2700" x2="500" y2="2700" stroke="#000000" stroke-opacity="1" stroke-width="6" stroke-linecap="round" />
            <line x1="411.765" y1="2778.75" x2="411.765" y2="2700" stroke="#000000" stroke-opacity="1" stroke-width="6" stroke-linecap="round" />
            <line x1="323.529" y1="2778.75" x2="411.765" y2="2778.75" stroke="#000000" stroke-opacity="1" stroke-width="6" stroke-linecap="round" />
            <line x1="323.529" y1="2979.84" x2="323.529" y2="2778.75" stroke="#000000" stroke-opacity="1" stroke-width="6" stroke-linecap="round" />
            <line x1="294.118" y1="2979.84" x2="323.529" y2="2979.84" stroke="#000000" stroke-opacity="1" stroke-width="6" stroke-linecap="round" />
            <line x1="294.118" y1="2699.3" x2="294.118" y2="2979.84" stroke="#000000" stroke-opacity="1" stroke-width="6" stroke-linecap="round" />
            <line x1="264.706" y1="2699.3" x2="294.118" y2="2699.3" stroke="#000000" stroke-opacity="1" stroke-width="6" stroke-linecap="round" />
            <line x1="264.706" y1="2418.4" x2="264.706" y2="2699.3" stroke="#000000" stroke-opacity="1" stroke-width="6" stroke-linecap="round" />
            <line x1="235.294" y1="2418.4" x2="264.706" y2="2418.4" stroke="#000000" stroke-opacity="1" stroke-width="6" stroke-linecap="round" />
            <line x1="235.294" y1="2176.7" x2="235.294" y2="2418.4" stroke="#000000" stroke-opacity="1" stroke-width="6" stroke-linecap="round" />
            <line x1="470.588" y1="1890" x2="500" y2="1890" stroke="#000000" stroke-opacity="1" stroke-width="6" stroke-linecap="round" />
            <line x1="470.588" y1="1935" x2="470.588" y2="1890" stroke="#000000" stroke-opacity="1" stroke-width="6" stroke-linecap="round" />
            <line x1="470.588" y1="1980" x2="500" y2="1980" stroke="#000000" stroke-opacity="1" stroke-width="6" stroke-linecap="round" />
            <line x1="470.588" y1="1935" x2="470.588" y2="1980" stroke="#000000" stroke-opacity="1" stroke-width="6" stroke-linecap="round" />
            <line x1="235.294" y1="1935" x2="470.588" y2="1935" stroke="#000000" stroke-opacity="1" stroke-width="6" stroke-linecap="round" />
            <line x1="235.294" y1="2176.7" x2="235.294" y2="1935" stroke="#000000" stroke-opacity="1" stroke-width="6" stroke-linecap="round" />
            <line x1="205.882" y1="2176.7" x2="235.294" y2="2176.7" stroke="#000000" stroke-opacity="1" stroke-width="6" stroke-linecap="round" />
            <line x1="205.882" y1="1988.35" x2="205.882" y2="2176.7" stroke="#000000" stroke-opacity="1" stroke-width="6" stroke-linecap="round" />
            <line x1="176.471" y1="1988.35" x2="205.882" y2="1988.35" stroke="#000000" stroke-opacity="1" stroke-width="6" stroke-linecap="round" />
            <line x1="176.471" y1="1826.67" x2="176.471" y2="1988.35" stroke="#000000" stroke-opacity="1" stroke-width="6" stroke-linecap="round" />
            <line x1="470.588" y1="1620" x2="500" y2="1620" stroke="#000000" stroke-opacity="1" stroke-width="6" stroke-linecap="round" />
            <line x1="470.588" y1="1665" x2="470.588" y2="1620" stroke="#000000" stroke-opacity="1" stroke-width="6" stroke-linecap="round" />
            <line x1="470.588" y1="1710" x2="500" y2="1710" stroke="#000000" stroke-opacity="1" stroke-width="6" stroke-linecap="round" />
            <line x1="470.588" y1="1665" x2="470.588" y2="1710" stroke="#000000" stroke-opacity="1" stroke-width="6" stroke-linecap="round" />
            <line x1="176.471" y1="1665" x2="470.588" y2="1665" stroke="#000000" stroke-opacity="1" stroke-width="6" stroke-linecap="round" />
            <line x1="176.471" y1="1826.67" x2="176.471" y2="1665" stroke="#000000" stroke-opacity="1" stroke-width="6" stroke-linecap="round" />
            <line x1="147.059" y1="1826.67" x2="176.471" y2="1826.67" stroke="#000000" stroke-opacity="1" stroke-width="6" stroke-linecap="round" />
            <line x1="147.059" y1="1678.34" x2="147.059" y2="1826.67" stroke="#000000" stroke-opacity="1" stroke-width="6" stroke-linecap="round" />
            <line x1="147.059" y1="1530" x2="500" y2="1530" stroke="#000000" stroke-opacity="1" stroke-width="6" stroke-linecap="round" />
            <line x1="147.059" y1="1678.34" x2="147.059" y2="1530" stroke="#000000" stroke-opacity="1" stroke-width="6" stroke-linecap="round" />
            <line x1="117.647" y1="1678.34" x2="147.059" y2="1678.34" stroke="#000000" stroke-opacity="1" stroke-width="6" stroke-linecap="round" />
            <line x1="117.647" y1="1274.4" x2="117.647" y2="1678.34" stroke="#000000" stroke-opacity="1" stroke-width="6" stroke-linecap="round" />
            <line x1="323.529" y1="720" x2="500" y2="720" stroke="#000000" stroke-opacity="1" stroke-width="6" stroke-linecap="round" />
            <line x1="323.529" y1="870.469" x2="323.529" y2="720" stroke="#000000" stroke-opacity="1" stroke-width="6" stroke-linecap="round" />
            <line x1="441.176" y1="810" x2="500" y2="810" stroke="#000000" stroke-opacity="1" stroke-width="6" stroke-linecap="round" />
            <line x1="441.176" y1="877.5" x2="441.176" y2="810" stroke="#000000" stroke-opacity="1" stroke-width="6" stroke-linecap="round" />
            <line x1="470.588" y1="900" x2="500" y2="900" stroke="#000000" stroke-opacity="1" stroke-width="6" stroke-linecap="round" />
            <line x1="470.588" y1="945" x2="470.588" y2="900" stroke="#000000" stroke-opacity="1" stroke-width="6" stroke-linecap="round" />
            <line x1="470.588" y1="990" x2="500" y2="990" stroke="#000000" stroke-opacity="1" stroke-width="6" stroke-linecap="round" />
            <line x1="470.588" y1="945" x2="470.588" y2="990" stroke="#000000" stroke-opacity="1" stroke-width="6" stroke-linecap="round" />
            <line x1="441.176" y1="945" x2="470.588" y2="945" stroke="#000000" stroke-opacity="1" stroke-width="6" stroke-linecap="round" />
            <line x1="441.176" y1="877.5" x2="441.176" y2="945" stroke="#000000" stroke-opacity="1" stroke-width="6" stroke-linecap="round" />
            <line x1="352.941" y1="877.5" x2="441.176" y2="877.5" stroke="#000000" stroke-opacity="1" stroke-width="6" stroke-linecap="round" />
            <line x1="352.941" y1="1020.94" x2="352.941" y2="877.5" stroke="#000000" stroke-opacity="1" stroke-width="6" stroke-linecap="round" />
            <line x1="382.353" y1="1080" x2="500" y2="1080" stroke="#000000" stroke-opacity="1" stroke-width="6" stroke-linecap="round" />
            <line x1="382.353" y1="1164.38" x2="382.353" y2="1080" stroke="#000000" stroke-opacity="1" stroke-width="6" stroke-linecap="round" />
            <line x1="470.588" y1="1350" x2="500" y2="1350" stroke="#000000" stroke-opacity="1" stroke-width="6" stroke-linecap="round" />
            <line x1="470.588" y1="1395" x2="470.588" y2="1350" stroke="#000000" stroke-opacity="1" stroke-width="6" stroke-linecap="round" />
            <line x1="470.588" y1="1440" x2="500" y2="1440" stroke="#000000" stroke-opacity="1" stroke-width="6" stroke-linecap="round" />
            <line x1="470.588" y1="1395" x2="470.588" y2="1440" stroke="#000000" stroke-opacity="1" stroke-width="6" stroke-linecap="round" />
            <line x1="441.176" y1="1395" x2="470.588" y2="1395" stroke="#000000" stroke-opacity="1" stroke-width="6" stroke-linecap="round" />
            <line x1="441.176" y1="1327.5" x2="441.176" y2="1395" stroke="#000000" stroke-opacity="1" stroke-width="6" stroke-linecap="round" />
            <line x1="441.176" y1="1260" x2="500" y2="1260" stroke="#000000" stroke-opacity="1" stroke-width="6" stroke-linecap="round" />
            <line x1="441.176" y1="1327.5" x2="441.176" y2="1260" stroke="#000000" stroke-opacity="1" stroke-width="6" stroke-linecap="round" />
            <line x1="411.765" y1="1327.5" x2="441.176" y2="1327.5" stroke="#000000" stroke-opacity="1" stroke-width="6" stroke-linecap="round" />
            <line x1="411.765" y1="1248.75" x2="411.765" y2="1327.5" stroke="#000000" stroke-opacity="1" stroke-width="6" stroke-linecap="round" />
            <line x1="411.765" y1="1170" x2="500" y2="1170" stroke="#000000" stroke-opacity="1" stroke-width="6" stroke-linecap="round" />
            <line x1="411.765" y1="1248.75" x2="411.765" y2="1170" stroke="#000000" stroke-opacity="1" stroke-width="6" stroke-linecap="round" />
            <line x1="382.353" y1="1248.75" x2="411.765" y2="1248.75" stroke="#000000" stroke-opacity="1" stroke-width="6" stroke-linecap="round" />
            <line x1="382.353" y1="1164.38" x2="382.353" y2="1248.75" stroke="#000000" stroke-opacity="1" stroke-width="6" stroke-linecap="round" />
            <line x1="352.941" y1="1164.38" x2="382.353" y2="1164.38" stroke="#000000" stroke-opacity="1" stroke-width="6" stroke-linecap="round" />
            <line x1="352.941" y1="1020.94" x2="352.941" y2="1164.38" stroke="#000000" stroke-opacity="1" stroke-width="6" stroke-linecap="round" />
            <line x1="323.529" y1="1020.94" x2="352.941" y2="1020.94" stroke="#000000" stroke-opacity="1" stroke-width="6" stroke-linecap="round" />
            <line x1="323.529" y1="870.469" x2="323.529" y2="1020.94" stroke="#000000" stroke-opacity="1" stroke-width="6" stroke-linecap="round" />
            <line x1="117.647" y1="870.469" x2="323.529" y2="870.469" stroke="#000000" stroke-opacity="1" stroke-width="6" stroke-linecap="round" />
            <line x1="117.647" y1="1274.4" x2="117.647" y2="870.469" stroke="#000000" stroke-opacity="1" stroke-width="6" stroke-linecap="round" />
            <line x1="88.2353" y1="1274.4" x2="117.647" y2="1274.4" stroke="#000000" stroke-opacity="1" stroke-width="6" stroke-linecap="round" />
            <line x1="88.2353" y1="952.202" x2="88.2353" y2="1274.4" stroke="#000000" stroke-opacity="1" stroke-width="6" stroke-linecap="round" />
            <line x1="88.2353" y1="630" x2="500" y2="630" stroke="#000000" stroke-opacity="1" stroke-width="6" stroke-linecap="round" />
            <line x1="88.2353" y1="952.202" x2="88.2353" y2="630" stroke="#000000" stroke-opacity="1" stroke-width="6" stroke-linecap="round" />
            <line x1="58.8235" y1="952.202" x2="88.2353" y2="952.202" stroke="#000000" stroke-opacity="1" stroke-width="6" stroke-linecap="round" />
            <line x1="58.8235" y1="746.101" x2="58.8235" y2="952.202" stroke="#000000" stroke-opacity="1" stroke-width="6" stroke-linecap="round" />
            <line x1="58.8235" y1="540" x2="500" y2="540" stroke="#000000" stroke-opacity="1" stroke-width="6" stroke-linecap="round" />
            <line x1="58.8235" y1="746.101" x2="58.8235" y2="540" stroke="#000000" stroke-opacity="1" stroke-width="6" stroke-linecap="round" />
            <line x1="29.4118" y1="746.101" x2="58.8235" y2="746.101" stroke="#000000" stroke-opacity="1" stroke-width="6" stroke-linecap="round" />
            <line x1="29.4118" y1="575.55" x2="29.4118" y2="746.101" stroke="#000000" stroke-opacity="1" stroke-width="6" stroke-linecap="round" />
            <line x1="0" y1="575.55" x2="29.4118" y2="575.55" stroke="#000000" stroke-opacity="1" stroke-width="6" stroke-linecap="round" />
            <line x1="0" y1="321.525" x2="0" y2="575.55" stroke="#000000" stroke-opacity="1" stroke-width="6" stroke-linecap="round" />
            <line x1="0" y1="270" x2="500" y2="270" stroke="#000000" stroke-opacity="1" stroke-width="6" stroke-linecap="round" />
            <line x1="0" y1="321.525" x2="0" y2="270" stroke="#000000" stroke-opacity="1" stroke-width="6" stroke-linecap="round" />
        </g>
        <g>
            <a target="_blank" href="../../../public/gr/species/ACACH.html">
                <g transform="translate( 500, 270 )">
                    <image x="10" y="-50" width="80" height="80" xlink:href="../../thumbs/ACACH.png" />
                </g>
            </a>
            <a target="_blank" href="../../../public/gr/species/FALPE.html">
                <g transform="translate( 500, 540 )">
                    <image x="10" y="-50" width="80" height="80" xlink:href="../../thumbs/FALPE.png" />
                </g>
            </a>
            <a target="_blank" href="../../../public/gr/species/CARCR.html">
                <g transform="translate( 500, 630 )">
                    <image x="10" y="-50" width="80" height="80" xlink:href="../../thumbs/CARCR.png" />
                </g>
            </a>
            <a target="_blank" href="../../../public/gr/species/LEPDI.html">
                <g transform="translate( 500, 1170 )">
                    <image x="10" y="-50" width="80" height="80" xlink:href="../../thumbs/LEPDI.png" />
                </g>
            </a>
            <a target="_blank" href="../../../public/gr/species/BUCRH.html">
                <g transform="translate( 500, 1260 )">
                    <image x="10" y="-50" width="80" height="80" xlink:href="../../thumbs/BUCRH.png" />
                </g>
            </a>
            <a target="_blank" href="../../../public/gr/species/PICPU.html">
                <g transform="translate( 500, 1440 )">
                    <image x="10" y="-50" width="80" height="80" xlink:href="../../thumbs/PICPU.png" />
                </g>
            </a>
            <a target="_blank" href="../../../public/gr/species/MERNU.html">
                <g transform="translate( 500, 1350 )">
                    <image x="10" y="-50" width="80" height="80" xlink:href="../../thumbs/MERNU.png" />
                </g>
            </a>
            <a target="_blank" href="../../../public/gr/species/APAVI.html">
                <g transform="translate( 500, 1080 )">
                    <image x="10" y="-50" width="80" height="80" xlink:href="../../thumbs/APAVI.png" />
                </g>
            </a>
            <a target="_blank" href="../../../public/gr/species/HALLE.html">
                <g transform="translate( 500, 990 )">
                    <image x="10" y="-50" width="80" height="80" xlink:href="../../thumbs/HALLE.png" />
                </g>
            </a>
            <a target="_blank" href="../../../public/gr/species/HALAL.html">
                <g transform="translate( 500, 900 )">
                    <image x="10" y="-50" width="80" height="80" xlink:href="../../thumbs/HALAL.png" />
                </g>
            </a>
            <a target="_blank" href="../../../public/gr/species/CATAU.html">
                <g transform="translate( 500, 810 )">
                    <image x="10" y="-50" width="80" height="80" xlink:href="../../thumbs/CATAU.png" />
                </g>
            </a>
            <a target="_blank" href="../../../public/gr/species/COLST.html">
                <g transform="translate( 500, 720 )">
                    <image x="10" y="-50" width="80" height="80" xlink:href="../../thumbs/COLST.png" />
                </g>
            </a>
            <a target="_blank" href="../../../public/gr/species/PHALE.html">
                <g transform="translate( 500, 1530 )">
                    <image x="10" y="-50" width="80" height="80" xlink:href="../../thumbs/PHALE.png" />
                </g>
            </a>
            <a target="_blank" href="../../../public/gr/species/CUCCA.html">
                <g transform="translate( 500, 1710 )">
                    <image x="10" y="-50" width="80" height="80" xlink:href="../../thumbs/CUCCA.png" />
                </g>
            </a>
            <a target="_blank" href="../../../public/gr/species/CHAVO.html">
                <g transform="translate( 500, 1620 )">
                    <image x="10" y="-50" width="80" height="80" xlink:href="../../thumbs/CHAVO.png" />
                </g>
            </a>
            <a target="_blank" href="../../../public/gr/species/CHLUN.html">
                <g transform="translate( 500, 1980 )">
                    <image x="10" y="-50" width="80" height="80" xlink:href="../../thumbs/CHLUN.png" />
                </g>
            </a>
            <a target="_blank" href="../../../public/gr/species/OPHHO.html">
                <g transform="translate( 500, 1890 )">
                    <image x="10" y="-50" width="80" height="80" xlink:href="../../thumbs/OPHHO.png" />
                </g>
            </a>
            <a target="_blank" href="../../../public/gr/species/EURHE.html">
                <g transform="translate( 500, 2700 )">
                    <image x="10" y="-50" width="80" height="80" xlink:href="../../thumbs/EURHE.png" />
                </g>
            </a>
            <a target="_blank" href="../../../public/gr/species/CHAPE.html">
                <g transform="translate( 500, 2970 )">
                    <image x="10" y="-50" width="80" height="80" xlink:href="../../thumbs/CHAPE.png" />
                </g>
            </a>
            <a target="_blank" href="../../../public/gr/species/CALAN.html">
                <g transform="translate( 500, 2880 )">
                    <image x="10" y="-50" width="80" height="80" xlink:href="../../thumbs/CALAN.png" />
                </g>
            </a>
            <a target="_blank" href="../../../public/gr/species/CAPCA.html">
                <g transform="translate( 500, 2790 )">
                    <image x="10" y="-50" width="80" height="80" xlink:href="../../thumbs/CAPCA.png" />
                </g>
            </a>
            <a target="_blank" href="../../../public/gr/species/GAVST.html">
                <g transform="translate( 500, 3060 )">
                    <image x="10" y="-50" width="80" height="80" xlink:href="../../thumbs/GAVST.png" />
                </g>
            </a>
            <a target="_blank" href="../../../public/gr/species/APTFO.html">
                <g transform="translate( 500, 3240 )">
                    <image x="10" y="-50" width="80" height="80" xlink:href="../../thumbs/APTFO.png" />
                </g>
            </a>
            <a target="_blank" href="../../../public/gr/species/FULGL.html">
                <g transform="translate( 500, 3150 )">
                    <image x="10" y="-50" width="80" height="80" xlink:href="../../thumbs/FULGL.png" />
                </g>
            </a>
            <a target="_blank" href="../../../public/gr/species/NIPNI.html">
                <g transform="translate( 500, 3420 )">
                    <image x="10" y="-50" width="80" height="80" xlink:href="../../thumbs/NIPNI.png" />
                </g>
            </a>
            <a target="_blank" href="../../../public/gr/species/PELCR.html">
                <g transform="translate( 500, 3600 )">
                    <image x="10" y="-50" width="80" height="80" xlink:href="../../thumbs/PELCR.png" />
                </g>
            </a>
            <a target="_blank" href="../../../public/gr/species/EGRGA.html">
                <g transform="translate( 500, 3510 )">
                    <image x="10" y="-50" width="80" height="80" xlink:href="../../thumbs/EGRGA.png" />
                </g>
            </a>
            <a target="_blank" href="../../../public/gr/species/PHACA.html">
                <g transform="translate( 500, 3330 )">
                    <image x="10" y="-50" width="80" height="80" xlink:href="../../thumbs/PHACA.png" />
                </g>
            </a>
            <a target="_blank" href="../../../public/gr/species/GALGA.html">
                <g transform="translate( 500, 2610 )">
                    <image x="10" y="-50" width="80" height="80" xlink:href="../../thumbs/GALGA.png" />
                </g>
            </a>
            <a target="_blank" href="../../../public/gr/species/MELGA.html">
                <g transform="translate( 500, 2520 )">
                    <image x="10" y="-50" width="80" height="80" xlink:href="../../thumbs/MELGA.png" />
                </g>
            </a>
            <a target="_blank" href="../../../public/gr/species/ANAPL.html">
                <g transform="translate( 500, 2430 )">
                    <image x="10" y="-50" width="80" height="80" xlink:href="../../thumbs/ANAPL.png" />
                </g>
            </a>
            <a target="_blank" href="../../../public/gr/species/PHORU.html">
                <g transform="translate( 500, 2250 )">
                    <image x="10" y="-50" width="80" height="80" xlink:href="../../thumbs/PHORU.png" />
                </g>
            </a>
            <a target="_blank" href="../../../public/gr/species/COLLI.html">
                <g transform="translate( 500, 2160 )">
                    <image x="10" y="-50" width="80" height="80" xlink:href="../../thumbs/COLLI.png" />
                </g>
            </a>
            <a target="_blank" href="../../../public/gr/species/MESUN.html">
                <g transform="translate( 500, 2070 )">
                    <image x="10" y="-50" width="80" height="80" xlink:href="../../thumbs/MESUN.png" />
                </g>
            </a>
            <a target="_blank" href="../../../public/gr/species/BALRE.html">
                <g transform="translate( 500, 1800 )">
                    <image x="10" y="-50" width="80" height="80" xlink:href="../../thumbs/BALRE.png" />
                </g>
            </a>
            <a target="_blank" href="../../../public/gr/species/MELUN.html">
                <g transform="translate( 500, 450 )">
                    <image x="10" y="-50" width="80" height="80" xlink:href="../../thumbs/MELUN.png" />
                </g>
            </a>
            <a target="_blank" href="../../../public/gr/species/NESNO.html">
                <g transform="translate( 500, 360 )">
                    <image x="10" y="-50" width="80" height="80" xlink:href="../../thumbs/NESNO.png" />
                </g>
            </a>
            <a target="_blank" href="../../../public/gr/species/CORBR.html">
                <g transform="translate( 500, 180 )">
                    <image x="10" y="-50" width="80" height="80" xlink:href="../../thumbs/CORBR.png" />
                </g>
            </a>
            <a target="_blank" href="../../../public/gr/species/GEOFO.html">
                <g transform="translate( 500, 90 )">
                    <image x="10" y="-50" width="80" height="80" xlink:href="../../thumbs/GEOFO.png" />
                </g>
            </a>
            <a target="_blank" href="../../../public/gr/species/MANVI.html">
                <g transform="translate( 500, 0 )">
                    <image x="10" y="-50" width="80" height="80" xlink:href="../../thumbs/MANVI.png" />
                </g>
            </a>
            <a target="_blank" href="../../../public/gr/species/STRCA.html">
                <g transform="translate( 500, 2340 )">
                    <g>
                        <image x="10" y="-50" width="80" height="80" xlink:href="../../thumbs/STRCA.png" />
                        <rect x="10" y="-50" width="80" height="80" stroke="#cc2d47" stroke-opacity="1" stroke-width="6" fill="none" />
                    </g>
                </g>
            </a>
        </g>
    </g>
</svg>
