<?xml version="1.0" encoding="UTF-8"?>
<svg xmlns="http://www.w3.org/2000/svg" xmlns:xlink="http://www.w3.org/1999/xlink" width="1645" height="3290" style="background:#ffffffff">
<!-- Created with genesis v0.25.0 (http://genesis-lib.org) on 2021-12-01 at 02:11:01 -->
    <g transform="translate( 20, 70)" >
        <g>
            <line x1="331.941" y1="2880" x2="396.587" y2="2880" stroke="#eb0d73" stroke-opacity="1" stroke-width="6" stroke-linecap="round" stroke-dasharray="10 10" stroke-dashoffset="0" />
            <line x1="331.941" y1="2840" x2="331.941" y2="2880" stroke="#eb0d73" stroke-opacity="1" stroke-width="6" stroke-linecap="round" stroke-dasharray="10 10" stroke-dashoffset="0" />
            <line x1="279.35" y1="2840" x2="331.941" y2="2840" stroke="#000000" stroke-opacity="1" stroke-width="6" stroke-linecap="round" />
            <line x1="279.35" y1="2780" x2="279.35" y2="2840" stroke="#000000" stroke-opacity="1" stroke-width="6" stroke-linecap="round" />
            <line x1="57.4941" y1="0" x2="388.768" y2="0" stroke="#000000" stroke-opacity="1" stroke-width="6" stroke-linecap="round" />
            <line x1="57.4941" y1="60" x2="57.4941" y2="0" stroke="#000000" stroke-opacity="1" stroke-width="6" stroke-linecap="round" />
            <line x1="264.555" y1="80" x2="543.12" y2="80" stroke="#000000" stroke-opacity="1" stroke-width="6" stroke-linecap="round" />
            <line x1="264.555" y1="120" x2="264.555" y2="80" stroke="#000000" stroke-opacity="1" stroke-width="6" stroke-linecap="round" />
            <line x1="264.555" y1="160" x2="467.784" y2="160" stroke="#000000" stroke-opacity="1" stroke-width="6" stroke-linecap="round" />
            <line x1="264.555" y1="120" x2="264.555" y2="160" stroke="#000000" stroke-opacity="1" stroke-width="6" stroke-linecap="round" />
            <line x1="57.4941" y1="120" x2="264.555" y2="120" stroke="#000000" stroke-opacity="1" stroke-width="6" stroke-linecap="round" />
            <line x1="57.4941" y1="60" x2="57.4941" y2="120" stroke="#000000" stroke-opacity="1" stroke-width="6" stroke-linecap="round" />
            <line x1="0" y1="60" x2="57.4941" y2="60" stroke="#000000" stroke-opacity="1" stroke-width="6" stroke-linecap="round" />
            <line x1="0" y1="285.762" x2="0" y2="60" stroke="#000000" stroke-opacity="1" stroke-width="6" stroke-linecap="round" />
            <line x1="552.842" y1="320" x2="780.618" y2="320" stroke="#000000" stroke-opacity="1" stroke-width="6" stroke-linecap="round" />
            <line x1="552.842" y1="360" x2="552.842" y2="320" stroke="#000000" stroke-opacity="1" stroke-width="6" stroke-linecap="round" />
            <line x1="552.842" y1="400" x2="846.074" y2="400" stroke="#000000" stroke-opacity="1" stroke-width="6" stroke-linecap="round" />
            <line x1="552.842" y1="360" x2="552.842" y2="400" stroke="#000000" stroke-opacity="1" stroke-width="6" stroke-linecap="round" />
            <line x1="203.738" y1="360" x2="552.842" y2="360" stroke="#000000" stroke-opacity="1" stroke-width="6" stroke-linecap="round" />
            <line x1="203.738" y1="511.525" x2="203.738" y2="360" stroke="#000000" stroke-opacity="1" stroke-width="6" stroke-linecap="round" />
            <line x1="233.335" y1="1600" x2="537.432" y2="1600" stroke="#000000" stroke-opacity="1" stroke-width="6" stroke-linecap="round" />
            <line x1="233.335" y1="1762.58" x2="233.335" y2="1600" stroke="#000000" stroke-opacity="1" stroke-width="6" stroke-linecap="round" />
            <line x1="253.605" y1="1840" x2="781.32" y2="1840" stroke="#000000" stroke-opacity="1" stroke-width="6" stroke-linecap="round" />
            <line x1="253.605" y1="1900" x2="253.605" y2="1840" stroke="#000000" stroke-opacity="1" stroke-width="6" stroke-linecap="round" />
            <line x1="256.329" y1="1920" x2="741.939" y2="1920" stroke="#000000" stroke-opacity="1" stroke-width="6" stroke-linecap="round" />
            <line x1="256.329" y1="1960" x2="256.329" y2="1920" stroke="#000000" stroke-opacity="1" stroke-width="6" stroke-linecap="round" />
            <line x1="256.329" y1="2000" x2="466.863" y2="2000" stroke="#000000" stroke-opacity="1" stroke-width="6" stroke-linecap="round" />
            <line x1="256.329" y1="1960" x2="256.329" y2="2000" stroke="#000000" stroke-opacity="1" stroke-width="6" stroke-linecap="round" />
            <line x1="253.605" y1="1960" x2="256.329" y2="1960" stroke="#000000" stroke-opacity="1" stroke-width="6" stroke-linecap="round" />
            <line x1="253.605" y1="1900" x2="253.605" y2="1960" stroke="#000000" stroke-opacity="1" stroke-width="6" stroke-linecap="round" />
            <line x1="239.032" y1="1900" x2="253.605" y2="1900" stroke="#000000" stroke-opacity="1" stroke-width="6" stroke-linecap="round" />
            <line x1="239.032" y1="2130.31" x2="239.032" y2="1900" stroke="#000000" stroke-opacity="1" stroke-width="6" stroke-linecap="round" />
            <line x1="613.501" y1="2080" x2="1234.04" y2="2080" stroke="#000000" stroke-opacity="1" stroke-width="6" stroke-linecap="round" />
            <line x1="613.501" y1="2140" x2="613.501" y2="2080" stroke="#000000" stroke-opacity="1" stroke-width="6" stroke-linecap="round" />
            <line x1="1350.48" y1="2160" x2="1600" y2="2160" stroke="#000000" stroke-opacity="1" stroke-width="6" stroke-linecap="round" />
            <line x1="1350.48" y1="2200" x2="1350.48" y2="2160" stroke="#000000" stroke-opacity="1" stroke-width="6" stroke-linecap="round" />
            <line x1="1350.48" y1="2240" x2="1528.43" y2="2240" stroke="#000000" stroke-opacity="1" stroke-width="6" stroke-linecap="round" />
            <line x1="1350.48" y1="2200" x2="1350.48" y2="2240" stroke="#000000" stroke-opacity="1" stroke-width="6" stroke-linecap="round" />
            <line x1="613.501" y1="2200" x2="1350.48" y2="2200" stroke="#000000" stroke-opacity="1" stroke-width="6" stroke-linecap="round" />
            <line x1="613.501" y1="2140" x2="613.501" y2="2200" stroke="#000000" stroke-opacity="1" stroke-width="6" stroke-linecap="round" />
            <line x1="244.088" y1="2140" x2="613.501" y2="2140" stroke="#000000" stroke-opacity="1" stroke-width="6" stroke-linecap="round" />
            <line x1="244.088" y1="2360.62" x2="244.088" y2="2140" stroke="#000000" stroke-opacity="1" stroke-width="6" stroke-linecap="round" />
            <line x1="282.715" y1="2960" x2="632.349" y2="2960" stroke="#000000" stroke-opacity="1" stroke-width="6" stroke-linecap="round" />
            <line x1="282.715" y1="3030" x2="282.715" y2="2960" stroke="#000000" stroke-opacity="1" stroke-width="6" stroke-linecap="round" />
            <line x1="292.543" y1="3120" x2="594.307" y2="3120" stroke="#000000" stroke-opacity="1" stroke-width="6" stroke-linecap="round" />
            <line x1="292.543" y1="3160" x2="292.543" y2="3120" stroke="#000000" stroke-opacity="1" stroke-width="6" stroke-linecap="round" />
            <line x1="292.543" y1="3200" x2="517.358" y2="3200" stroke="#000000" stroke-opacity="1" stroke-width="6" stroke-linecap="round" />
            <line x1="292.543" y1="3160" x2="292.543" y2="3200" stroke="#000000" stroke-opacity="1" stroke-width="6" stroke-linecap="round" />
            <line x1="286.048" y1="3160" x2="292.543" y2="3160" stroke="#000000" stroke-opacity="1" stroke-width="6" stroke-linecap="round" />
            <line x1="286.048" y1="3100" x2="286.048" y2="3160" stroke="#000000" stroke-opacity="1" stroke-width="6" stroke-linecap="round" />
            <line x1="286.048" y1="3040" x2="539.473" y2="3040" stroke="#000000" stroke-opacity="1" stroke-width="6" stroke-linecap="round" />
            <line x1="286.048" y1="3100" x2="286.048" y2="3040" stroke="#000000" stroke-opacity="1" stroke-width="6" stroke-linecap="round" />
            <line x1="282.715" y1="3100" x2="286.048" y2="3100" stroke="#000000" stroke-opacity="1" stroke-width="6" stroke-linecap="round" />
            <line x1="282.715" y1="3030" x2="282.715" y2="3100" stroke="#000000" stroke-opacity="1" stroke-width="6" stroke-linecap="round" />
            <line x1="274.69" y1="3030" x2="282.715" y2="3030" stroke="#000000" stroke-opacity="1" stroke-width="6" stroke-linecap="round" />
            <line x1="274.69" y1="2905" x2="274.69" y2="3030" stroke="#000000" stroke-opacity="1" stroke-width="6" stroke-linecap="round" />
            <line x1="279.35" y1="2720" x2="464.106" y2="2720" stroke="#000000" stroke-opacity="1" stroke-width="6" stroke-linecap="round" />
            <line x1="279.35" y1="2780" x2="279.35" y2="2720" stroke="#000000" stroke-opacity="1" stroke-width="6" stroke-linecap="round" />
            <line x1="331.941" y1="2800" x2="437.998" y2="2800" stroke="#000000" stroke-opacity="1" stroke-width="6" stroke-linecap="round" />
            <line x1="331.941" y1="2840" x2="331.941" y2="2800" stroke="#000000" stroke-opacity="1" stroke-width="6" stroke-linecap="round" />
            <line x1="274.69" y1="2780" x2="279.35" y2="2780" stroke="#000000" stroke-opacity="1" stroke-width="6" stroke-linecap="round" />
            <line x1="274.69" y1="2905" x2="274.69" y2="2780" stroke="#000000" stroke-opacity="1" stroke-width="6" stroke-linecap="round" />
            <line x1="267.371" y1="2905" x2="274.69" y2="2905" stroke="#000000" stroke-opacity="1" stroke-width="6" stroke-linecap="round" />
            <line x1="267.371" y1="2772.5" x2="267.371" y2="2905" stroke="#000000" stroke-opacity="1" stroke-width="6" stroke-linecap="round" />
            <line x1="267.371" y1="2640" x2="496.906" y2="2640" stroke="#000000" stroke-opacity="1" stroke-width="6" stroke-linecap="round" />
            <line x1="267.371" y1="2772.5" x2="267.371" y2="2640" stroke="#000000" stroke-opacity="1" stroke-width="6" stroke-linecap="round" />
            <line x1="259.969" y1="2772.5" x2="267.371" y2="2772.5" stroke="#000000" stroke-opacity="1" stroke-width="6" stroke-linecap="round" />
            <line x1="259.969" y1="2581.25" x2="259.969" y2="2772.5" stroke="#000000" stroke-opacity="1" stroke-width="6" stroke-linecap="round" />
            <line x1="274.959" y1="2400" x2="685.796" y2="2400" stroke="#000000" stroke-opacity="1" stroke-width="6" stroke-linecap="round" />
            <line x1="274.959" y1="2460" x2="274.959" y2="2400" stroke="#000000" stroke-opacity="1" stroke-width="6" stroke-linecap="round" />
            <line x1="402.047" y1="2480" x2="946.92" y2="2480" stroke="#000000" stroke-opacity="1" stroke-width="6" stroke-linecap="round" />
            <line x1="402.047" y1="2520" x2="402.047" y2="2480" stroke="#000000" stroke-opacity="1" stroke-width="6" stroke-linecap="round" />
            <line x1="402.047" y1="2560" x2="853.905" y2="2560" stroke="#000000" stroke-opacity="1" stroke-width="6" stroke-linecap="round" />
            <line x1="402.047" y1="2520" x2="402.047" y2="2560" stroke="#000000" stroke-opacity="1" stroke-width="6" stroke-linecap="round" />
            <line x1="274.959" y1="2520" x2="402.047" y2="2520" stroke="#000000" stroke-opacity="1" stroke-width="6" stroke-linecap="round" />
            <line x1="274.959" y1="2460" x2="274.959" y2="2520" stroke="#000000" stroke-opacity="1" stroke-width="6" stroke-linecap="round" />
            <line x1="262.95" y1="2460" x2="274.959" y2="2460" stroke="#000000" stroke-opacity="1" stroke-width="6" stroke-linecap="round" />
            <line x1="262.95" y1="2390" x2="262.95" y2="2460" stroke="#000000" stroke-opacity="1" stroke-width="6" stroke-linecap="round" />
            <line x1="262.95" y1="2320" x2="669.677" y2="2320" stroke="#000000" stroke-opacity="1" stroke-width="6" stroke-linecap="round" />
            <line x1="262.95" y1="2390" x2="262.95" y2="2320" stroke="#000000" stroke-opacity="1" stroke-width="6" stroke-linecap="round" />
            <line x1="259.969" y1="2390" x2="262.95" y2="2390" stroke="#000000" stroke-opacity="1" stroke-width="6" stroke-linecap="round" />
            <line x1="259.969" y1="2581.25" x2="259.969" y2="2390" stroke="#000000" stroke-opacity="1" stroke-width="6" stroke-linecap="round" />
            <line x1="244.088" y1="2581.25" x2="259.969" y2="2581.25" stroke="#000000" stroke-opacity="1" stroke-width="6" stroke-linecap="round" />
            <line x1="244.088" y1="2360.62" x2="244.088" y2="2581.25" stroke="#000000" stroke-opacity="1" stroke-width="6" stroke-linecap="round" />
            <line x1="239.032" y1="2360.62" x2="244.088" y2="2360.62" stroke="#000000" stroke-opacity="1" stroke-width="6" stroke-linecap="round" />
            <line x1="239.032" y1="2130.31" x2="239.032" y2="2360.62" stroke="#000000" stroke-opacity="1" stroke-width="6" stroke-linecap="round" />
            <line x1="237.34" y1="2130.31" x2="239.032" y2="2130.31" stroke="#000000" stroke-opacity="1" stroke-width="6" stroke-linecap="round" />
            <line x1="237.34" y1="1925.16" x2="237.34" y2="2130.31" stroke="#000000" stroke-opacity="1" stroke-width="6" stroke-linecap="round" />
            <line x1="249.068" y1="1680" x2="635.253" y2="1680" stroke="#000000" stroke-opacity="1" stroke-width="6" stroke-linecap="round" />
            <line x1="249.068" y1="1720" x2="249.068" y2="1680" stroke="#000000" stroke-opacity="1" stroke-width="6" stroke-linecap="round" />
            <line x1="249.068" y1="1760" x2="663.102" y2="1760" stroke="#000000" stroke-opacity="1" stroke-width="6" stroke-linecap="round" />
            <line x1="249.068" y1="1720" x2="249.068" y2="1760" stroke="#000000" stroke-opacity="1" stroke-width="6" stroke-linecap="round" />
            <line x1="237.34" y1="1720" x2="249.068" y2="1720" stroke="#000000" stroke-opacity="1" stroke-width="6" stroke-linecap="round" />
            <line x1="237.34" y1="1925.16" x2="237.34" y2="1720" stroke="#000000" stroke-opacity="1" stroke-width="6" stroke-linecap="round" />
            <line x1="233.335" y1="1925.16" x2="237.34" y2="1925.16" stroke="#000000" stroke-opacity="1" stroke-width="6" stroke-linecap="round" />
            <line x1="233.335" y1="1762.58" x2="233.335" y2="1925.16" stroke="#000000" stroke-opacity="1" stroke-width="6" stroke-linecap="round" />
            <line x1="229.043" y1="1762.58" x2="233.335" y2="1762.58" stroke="#000000" stroke-opacity="1" stroke-width="6" stroke-linecap="round" />
            <line x1="229.043" y1="1621.29" x2="229.043" y2="1762.58" stroke="#000000" stroke-opacity="1" stroke-width="6" stroke-linecap="round" />
            <line x1="237.784" y1="1440" x2="572.466" y2="1440" stroke="#000000" stroke-opacity="1" stroke-width="6" stroke-linecap="round" />
            <line x1="237.784" y1="1480" x2="237.784" y2="1440" stroke="#000000" stroke-opacity="1" stroke-width="6" stroke-linecap="round" />
            <line x1="237.784" y1="1520" x2="829.597" y2="1520" stroke="#000000" stroke-opacity="1" stroke-width="6" stroke-linecap="round" />
            <line x1="237.784" y1="1480" x2="237.784" y2="1520" stroke="#000000" stroke-opacity="1" stroke-width="6" stroke-linecap="round" />
            <line x1="229.043" y1="1480" x2="237.784" y2="1480" stroke="#000000" stroke-opacity="1" stroke-width="6" stroke-linecap="round" />
            <line x1="229.043" y1="1621.29" x2="229.043" y2="1480" stroke="#000000" stroke-opacity="1" stroke-width="6" stroke-linecap="round" />
            <line x1="226.082" y1="1621.29" x2="229.043" y2="1621.29" stroke="#000000" stroke-opacity="1" stroke-width="6" stroke-linecap="round" />
            <line x1="226.082" y1="1490.64" x2="226.082" y2="1621.29" stroke="#000000" stroke-opacity="1" stroke-width="6" stroke-linecap="round" />
            <line x1="226.082" y1="1360" x2="527.52" y2="1360" stroke="#000000" stroke-opacity="1" stroke-width="6" stroke-linecap="round" />
            <line x1="226.082" y1="1490.64" x2="226.082" y2="1360" stroke="#000000" stroke-opacity="1" stroke-width="6" stroke-linecap="round" />
            <line x1="222.357" y1="1490.64" x2="226.082" y2="1490.64" stroke="#000000" stroke-opacity="1" stroke-width="6" stroke-linecap="round" />
            <line x1="222.357" y1="1132.2" x2="222.357" y2="1490.64" stroke="#000000" stroke-opacity="1" stroke-width="6" stroke-linecap="round" />
            <line x1="224.865" y1="640" x2="901.879" y2="640" stroke="#000000" stroke-opacity="1" stroke-width="6" stroke-linecap="round" />
            <line x1="224.865" y1="773.75" x2="224.865" y2="640" stroke="#000000" stroke-opacity="1" stroke-width="6" stroke-linecap="round" />
            <line x1="238.392" y1="720" x2="404.347" y2="720" stroke="#000000" stroke-opacity="1" stroke-width="6" stroke-linecap="round" />
            <line x1="238.392" y1="780" x2="238.392" y2="720" stroke="#000000" stroke-opacity="1" stroke-width="6" stroke-linecap="round" />
            <line x1="471.812" y1="800" x2="475.704" y2="800" stroke="#000000" stroke-opacity="1" stroke-width="6" stroke-linecap="round" />
            <line x1="471.812" y1="840" x2="471.812" y2="800" stroke="#000000" stroke-opacity="1" stroke-width="6" stroke-linecap="round" />
            <line x1="471.812" y1="880" x2="475.265" y2="880" stroke="#000000" stroke-opacity="1" stroke-width="6" stroke-linecap="round" />
            <line x1="471.812" y1="840" x2="471.812" y2="880" stroke="#000000" stroke-opacity="1" stroke-width="6" stroke-linecap="round" />
            <line x1="238.392" y1="840" x2="471.812" y2="840" stroke="#000000" stroke-opacity="1" stroke-width="6" stroke-linecap="round" />
            <line x1="238.392" y1="780" x2="238.392" y2="840" stroke="#000000" stroke-opacity="1" stroke-width="6" stroke-linecap="round" />
            <line x1="227.187" y1="780" x2="238.392" y2="780" stroke="#000000" stroke-opacity="1" stroke-width="6" stroke-linecap="round" />
            <line x1="227.187" y1="907.5" x2="227.187" y2="780" stroke="#000000" stroke-opacity="1" stroke-width="6" stroke-linecap="round" />
            <line x1="232.62" y1="960" x2="815.995" y2="960" stroke="#000000" stroke-opacity="1" stroke-width="6" stroke-linecap="round" />
            <line x1="232.62" y1="1035" x2="232.62" y2="960" stroke="#000000" stroke-opacity="1" stroke-width="6" stroke-linecap="round" />
            <line x1="265.395" y1="1200" x2="843.539" y2="1200" stroke="#000000" stroke-opacity="1" stroke-width="6" stroke-linecap="round" />
            <line x1="265.395" y1="1240" x2="265.395" y2="1200" stroke="#000000" stroke-opacity="1" stroke-width="6" stroke-linecap="round" />
            <line x1="265.395" y1="1280" x2="917.005" y2="1280" stroke="#000000" stroke-opacity="1" stroke-width="6" stroke-linecap="round" />
            <line x1="265.395" y1="1240" x2="265.395" y2="1280" stroke="#000000" stroke-opacity="1" stroke-width="6" stroke-linecap="round" />
            <line x1="246.205" y1="1240" x2="265.395" y2="1240" stroke="#000000" stroke-opacity="1" stroke-width="6" stroke-linecap="round" />
            <line x1="246.205" y1="1180" x2="246.205" y2="1240" stroke="#000000" stroke-opacity="1" stroke-width="6" stroke-linecap="round" />
            <line x1="246.205" y1="1120" x2="773.037" y2="1120" stroke="#000000" stroke-opacity="1" stroke-width="6" stroke-linecap="round" />
            <line x1="246.205" y1="1180" x2="246.205" y2="1120" stroke="#000000" stroke-opacity="1" stroke-width="6" stroke-linecap="round" />
            <line x1="235.286" y1="1180" x2="246.205" y2="1180" stroke="#000000" stroke-opacity="1" stroke-width="6" stroke-linecap="round" />
            <line x1="235.286" y1="1110" x2="235.286" y2="1180" stroke="#000000" stroke-opacity="1" stroke-width="6" stroke-linecap="round" />
            <line x1="235.286" y1="1040" x2="590.238" y2="1040" stroke="#000000" stroke-opacity="1" stroke-width="6" stroke-linecap="round" />
            <line x1="235.286" y1="1110" x2="235.286" y2="1040" stroke="#000000" stroke-opacity="1" stroke-width="6" stroke-linecap="round" />
            <line x1="232.62" y1="1110" x2="235.286" y2="1110" stroke="#000000" stroke-opacity="1" stroke-width="6" stroke-linecap="round" />
            <line x1="232.62" y1="1035" x2="232.62" y2="1110" stroke="#000000" stroke-opacity="1" stroke-width="6" stroke-linecap="round" />
            <line x1="227.187" y1="1035" x2="232.62" y2="1035" stroke="#000000" stroke-opacity="1" stroke-width="6" stroke-linecap="round" />
            <line x1="227.187" y1="907.5" x2="227.187" y2="1035" stroke="#000000" stroke-opacity="1" stroke-width="6" stroke-linecap="round" />
            <line x1="224.865" y1="907.5" x2="227.187" y2="907.5" stroke="#000000" stroke-opacity="1" stroke-width="6" stroke-linecap="round" />
            <line x1="224.865" y1="773.75" x2="224.865" y2="907.5" stroke="#000000" stroke-opacity="1" stroke-width="6" stroke-linecap="round" />
            <line x1="222.357" y1="773.75" x2="224.865" y2="773.75" stroke="#000000" stroke-opacity="1" stroke-width="6" stroke-linecap="round" />
            <line x1="222.357" y1="1132.2" x2="222.357" y2="773.75" stroke="#000000" stroke-opacity="1" stroke-width="6" stroke-linecap="round" />
            <line x1="216.885" y1="1132.2" x2="222.357" y2="1132.2" stroke="#000000" stroke-opacity="1" stroke-width="6" stroke-linecap="round" />
            <line x1="216.885" y1="846.099" x2="216.885" y2="1132.2" stroke="#000000" stroke-opacity="1" stroke-width="6" stroke-linecap="round" />
            <line x1="216.885" y1="560" x2="507.63" y2="560" stroke="#000000" stroke-opacity="1" stroke-width="6" stroke-linecap="round" />
            <line x1="216.885" y1="846.099" x2="216.885" y2="560" stroke="#000000" stroke-opacity="1" stroke-width="6" stroke-linecap="round" />
            <line x1="211.82" y1="846.099" x2="216.885" y2="846.099" stroke="#000000" stroke-opacity="1" stroke-width="6" stroke-linecap="round" />
            <line x1="211.82" y1="663.049" x2="211.82" y2="846.099" stroke="#000000" stroke-opacity="1" stroke-width="6" stroke-linecap="round" />
            <line x1="211.82" y1="480" x2="607.529" y2="480" stroke="#000000" stroke-opacity="1" stroke-width="6" stroke-linecap="round" />
            <line x1="211.82" y1="663.049" x2="211.82" y2="480" stroke="#000000" stroke-opacity="1" stroke-width="6" stroke-linecap="round" />
            <line x1="203.738" y1="663.049" x2="211.82" y2="663.049" stroke="#000000" stroke-opacity="1" stroke-width="6" stroke-linecap="round" />
            <line x1="203.738" y1="511.525" x2="203.738" y2="663.049" stroke="#000000" stroke-opacity="1" stroke-width="6" stroke-linecap="round" />
            <line x1="0" y1="511.525" x2="203.738" y2="511.525" stroke="#000000" stroke-opacity="1" stroke-width="6" stroke-linecap="round" />
            <line x1="0" y1="285.762" x2="0" y2="511.525" stroke="#000000" stroke-opacity="1" stroke-width="6" stroke-linecap="round" />
            <line x1="0" y1="240" x2="425.295" y2="240" stroke="#000000" stroke-opacity="1" stroke-width="6" stroke-linecap="round" />
            <line x1="0" y1="285.762" x2="0" y2="240" stroke="#000000" stroke-opacity="1" stroke-width="6" stroke-linecap="round" />
        </g>
        <g>
            <a target="_blank" href="../species/ACACH.html">
                <g transform="translate( 425.295, 240 )">
                    <image x="10" y="-50" width="100" height="100" xlink:href="../data/thumbs/ACACH.png" />
                </g>
            </a>
            <a target="_blank" href="../species/FALPE.html">
                <g transform="translate( 607.529, 480 )">
                    <image x="10" y="-50" width="100" height="100" xlink:href="../data/thumbs/FALPE.png" />
                </g>
            </a>
            <a target="_blank" href="../species/CARCR.html">
                <g transform="translate( 507.63, 560 )">
                    <image x="10" y="-50" width="100" height="100" xlink:href="../data/thumbs/CARCR.png" />
                </g>
            </a>
            <a target="_blank" href="../species/LEPDI.html">
                <g transform="translate( 590.238, 1040 )">
                    <image x="10" y="-50" width="100" height="100" xlink:href="../data/thumbs/LEPDI.png" />
                </g>
            </a>
            <a target="_blank" href="../species/BUCRH.html">
                <g transform="translate( 773.037, 1120 )">
                    <image x="10" y="-50" width="100" height="100" xlink:href="../data/thumbs/BUCRH.png" />
                </g>
            </a>
            <a target="_blank" href="../species/PICPU.html">
                <g transform="translate( 917.005, 1280 )">
                    <image x="10" y="-50" width="100" height="100" xlink:href="../data/thumbs/PICPU.png" />
                </g>
            </a>
            <a target="_blank" href="../species/MERNU.html">
                <g transform="translate( 843.539, 1200 )">
                    <image x="10" y="-50" width="100" height="100" xlink:href="../data/thumbs/MERNU.png" />
                </g>
            </a>
            <a target="_blank" href="../species/APAVI.html">
                <g transform="translate( 815.995, 960 )">
                    <image x="10" y="-50" width="100" height="100" xlink:href="../data/thumbs/APAVI.png" />
                </g>
            </a>
            <a target="_blank" href="../species/HALLE.html">
                <g transform="translate( 475.265, 880 )">
                    <image x="10" y="-50" width="100" height="100" xlink:href="../data/thumbs/HALLE.png" />
                </g>
            </a>
            <a target="_blank" href="../species/HALAL.html">
                <g transform="translate( 475.704, 800 )">
                    <image x="10" y="-50" width="100" height="100" xlink:href="../data/thumbs/HALAL.png" />
                </g>
            </a>
            <a target="_blank" href="../species/CATAU.html">
                <g transform="translate( 404.347, 720 )">
                    <image x="10" y="-50" width="100" height="100" xlink:href="../data/thumbs/CATAU.png" />
                </g>
            </a>
            <a target="_blank" href="../species/COLST.html">
                <g transform="translate( 901.879, 640 )">
                    <image x="10" y="-50" width="100" height="100" xlink:href="../data/thumbs/COLST.png" />
                </g>
            </a>
            <a target="_blank" href="../species/PHALE.html">
                <g transform="translate( 527.52, 1360 )">
                    <image x="10" y="-50" width="100" height="100" xlink:href="../data/thumbs/PHALE.png" />
                </g>
            </a>
            <a target="_blank" href="../species/CUCCA.html">
                <g transform="translate( 829.597, 1520 )">
                    <image x="10" y="-50" width="100" height="100" xlink:href="../data/thumbs/CUCCA.png" />
                </g>
            </a>
            <a target="_blank" href="../species/CHAVO.html">
                <g transform="translate( 572.466, 1440 )">
                    <image x="10" y="-50" width="100" height="100" xlink:href="../data/thumbs/CHAVO.png" />
                </g>
            </a>
            <a target="_blank" href="../species/CHLUN.html">
                <g transform="translate( 663.102, 1760 )">
                    <image x="10" y="-50" width="100" height="100" xlink:href="../data/thumbs/CHLUN.png" />
                </g>
            </a>
            <a target="_blank" href="../species/OPHHO.html">
                <g transform="translate( 635.253, 1680 )">
                    <image x="10" y="-50" width="100" height="100" xlink:href="../data/thumbs/OPHHO.png" />
                </g>
            </a>
            <a target="_blank" href="../species/EURHE.html">
                <g transform="translate( 669.677, 2320 )">
                    <image x="10" y="-50" width="100" height="100" xlink:href="../data/thumbs/EURHE.png" />
                </g>
            </a>
            <a target="_blank" href="../species/CHAPE.html">
                <g transform="translate( 853.905, 2560 )">
                    <image x="10" y="-50" width="100" height="100" xlink:href="../data/thumbs/CHAPE.png" />
                </g>
            </a>
            <a target="_blank" href="../species/CALAN.html">
                <g transform="translate( 946.92, 2480 )">
                    <image x="10" y="-50" width="100" height="100" xlink:href="../data/thumbs/CALAN.png" />
                </g>
            </a>
            <a target="_blank" href="../species/CAPCA.html">
                <g transform="translate( 685.796, 2400 )">
                    <image x="10" y="-50" width="100" height="100" xlink:href="../data/thumbs/CAPCA.png" />
                </g>
            </a>
            <a target="_blank" href="../species/GAVST.html">
                <g transform="translate( 496.906, 2640 )">
                    <image x="10" y="-50" width="100" height="100" xlink:href="../data/thumbs/GAVST.png" />
                </g>
            </a>
            <a target="_blank" href="../species/APTFO.html">
                <g transform="translate( 437.998, 2800 )">
                    <image x="10" y="-50" width="100" height="100" xlink:href="../data/thumbs/APTFO.png" />
                </g>
            </a>
            <a target="_blank" href="../species/FULGL.html">
                <g transform="translate( 464.106, 2720 )">
                    <image x="10" y="-50" width="100" height="100" xlink:href="../data/thumbs/FULGL.png" />
                </g>
            </a>
            <a target="_blank" href="../species/NIPNI.html">
                <g transform="translate( 539.473, 3040 )">
                    <image x="10" y="-50" width="100" height="100" xlink:href="../data/thumbs/NIPNI.png" />
                </g>
            </a>
            <a target="_blank" href="../species/PELCR.html">
                <g transform="translate( 517.358, 3200 )">
                    <image x="10" y="-50" width="100" height="100" xlink:href="../data/thumbs/PELCR.png" />
                </g>
            </a>
            <a target="_blank" href="../species/EGRGA.html">
                <g transform="translate( 594.307, 3120 )">
                    <image x="10" y="-50" width="100" height="100" xlink:href="../data/thumbs/EGRGA.png" />
                </g>
            </a>
            <a target="_blank" href="../species/PHACA.html">
                <g transform="translate( 632.349, 2960 )">
                    <image x="10" y="-50" width="100" height="100" xlink:href="../data/thumbs/PHACA.png" />
                </g>
            </a>
            <a target="_blank" href="../species/GALGA.html">
                <g transform="translate( 1528.43, 2240 )">
                    <image x="10" y="-50" width="100" height="100" xlink:href="../data/thumbs/GALGA.png" />
                </g>
            </a>
            <a target="_blank" href="../species/MELGA.html">
                <g transform="translate( 1600, 2160 )">
                    <image x="10" y="-50" width="100" height="100" xlink:href="../data/thumbs/MELGA.png" />
                </g>
            </a>
            <a target="_blank" href="../species/ANAPL.html">
                <g transform="translate( 1234.04, 2080 )">
                    <image x="10" y="-50" width="100" height="100" xlink:href="../data/thumbs/ANAPL.png" />
                </g>
            </a>
            <a target="_blank" href="../species/PHORU.html">
                <g transform="translate( 466.863, 2000 )">
                    <image x="10" y="-50" width="100" height="100" xlink:href="../data/thumbs/PHORU.png" />
                </g>
            </a>
            <a target="_blank" href="../species/COLLI.html">
                <g transform="translate( 741.939, 1920 )">
                    <image x="10" y="-50" width="100" height="100" xlink:href="../data/thumbs/COLLI.png" />
                </g>
            </a>
            <a target="_blank" href="../species/MESUN.html">
                <g transform="translate( 781.32, 1840 )">
                    <image x="10" y="-50" width="100" height="100" xlink:href="../data/thumbs/MESUN.png" />
                </g>
            </a>
            <a target="_blank" href="../species/BALRE.html">
                <g transform="translate( 537.432, 1600 )">
                    <image x="10" y="-50" width="100" height="100" xlink:href="../data/thumbs/BALRE.png" />
                </g>
            </a>
            <a target="_blank" href="../species/MELUN.html">
                <g transform="translate( 846.074, 400 )">
                    <image x="10" y="-50" width="100" height="100" xlink:href="../data/thumbs/MELUN.png" />
                </g>
            </a>
            <a target="_blank" href="../species/NESNO.html">
                <g transform="translate( 780.618, 320 )">
                    <image x="10" y="-50" width="100" height="100" xlink:href="../data/thumbs/NESNO.png" />
                </g>
            </a>
            <a target="_blank" href="../species/CORBR.html">
                <g transform="translate( 467.784, 160 )">
                    <image x="10" y="-50" width="100" height="100" xlink:href="../data/thumbs/CORBR.png" />
                </g>
            </a>
            <a target="_blank" href="../species/GEOFO.html">
                <g transform="translate( 543.12, 80 )">
                    <image x="10" y="-50" width="100" height="100" xlink:href="../data/thumbs/GEOFO.png" />
                </g>
            </a>
            <a target="_blank" href="../species/MANVI.html">
                <g transform="translate( 388.768, 0 )">
                    <image x="10" y="-50" width="100" height="100" xlink:href="../data/thumbs/MANVI.png" />
                </g>
            </a>
            <a target="_blank" href="../species/PYGAD.html">
                <g transform="translate( 396.587, 2880 )">
                    <image x="10" y="-50" width="100" height="100" xlink:href="../data/thumbs/PYGAD.png" />
                </g>
            </a>
        </g>
    </g>
</svg>
