<?xml version="1.0" encoding="UTF-8"?>
<svg xmlns="http://www.w3.org/2000/svg" xmlns:xlink="http://www.w3.org/1999/xlink" width="2085" height="4170" style="background:#ffffffff">
<!-- Created with genesis v0.25.0 (http://genesis-lib.org) on 2021-11-08 at 18:40:57 -->
    <g transform="translate( 20, 70)" >
        <g>
            <line x1="239.52" y1="0" x2="301.037" y2="0" stroke="#000000" stroke-opacity="1" stroke-width="6" stroke-linecap="round" />
            <line x1="239.52" y1="70" x2="239.52" y2="0" stroke="#000000" stroke-opacity="1" stroke-width="6" stroke-linecap="round" />
            <line x1="517.322" y1="160" x2="677.196" y2="160" stroke="#000000" stroke-opacity="1" stroke-width="6" stroke-linecap="round" />
            <line x1="517.322" y1="200" x2="517.322" y2="160" stroke="#000000" stroke-opacity="1" stroke-width="6" stroke-linecap="round" />
            <line x1="517.322" y1="240" x2="542.978" y2="240" stroke="#000000" stroke-opacity="1" stroke-width="6" stroke-linecap="round" />
            <line x1="517.322" y1="200" x2="517.322" y2="240" stroke="#000000" stroke-opacity="1" stroke-width="6" stroke-linecap="round" />
            <line x1="359.038" y1="200" x2="517.322" y2="200" stroke="#000000" stroke-opacity="1" stroke-width="6" stroke-linecap="round" />
            <line x1="359.038" y1="140" x2="359.038" y2="200" stroke="#000000" stroke-opacity="1" stroke-width="6" stroke-linecap="round" />
            <line x1="359.038" y1="80" x2="442.872" y2="80" stroke="#000000" stroke-opacity="1" stroke-width="6" stroke-linecap="round" />
            <line x1="359.038" y1="140" x2="359.038" y2="80" stroke="#000000" stroke-opacity="1" stroke-width="6" stroke-linecap="round" />
            <line x1="239.52" y1="140" x2="359.038" y2="140" stroke="#000000" stroke-opacity="1" stroke-width="6" stroke-linecap="round" />
            <line x1="239.52" y1="70" x2="239.52" y2="140" stroke="#000000" stroke-opacity="1" stroke-width="6" stroke-linecap="round" />
            <line x1="128.322" y1="70" x2="239.52" y2="70" stroke="#000000" stroke-opacity="1" stroke-width="6" stroke-linecap="round" />
            <line x1="128.322" y1="258.402" x2="128.322" y2="70" stroke="#000000" stroke-opacity="1" stroke-width="6" stroke-linecap="round" />
            <line x1="131.801" y1="320" x2="211.328" y2="320" stroke="#000000" stroke-opacity="1" stroke-width="6" stroke-linecap="round" />
            <line x1="131.801" y1="446.804" x2="131.801" y2="320" stroke="#000000" stroke-opacity="1" stroke-width="6" stroke-linecap="round" />
            <line x1="284.717" y1="400" x2="428.792" y2="400" stroke="#000000" stroke-opacity="1" stroke-width="6" stroke-linecap="round" />
            <line x1="284.717" y1="573.609" x2="284.717" y2="400" stroke="#000000" stroke-opacity="1" stroke-width="6" stroke-linecap="round" />
            <line x1="326.428" y1="480" x2="465.047" y2="480" stroke="#000000" stroke-opacity="1" stroke-width="6" stroke-linecap="round" />
            <line x1="326.428" y1="747.218" x2="326.428" y2="480" stroke="#000000" stroke-opacity="1" stroke-width="6" stroke-linecap="round" />
            <line x1="653.329" y1="640" x2="821.418" y2="640" stroke="#000000" stroke-opacity="1" stroke-width="6" stroke-linecap="round" />
            <line x1="653.329" y1="680" x2="653.329" y2="640" stroke="#000000" stroke-opacity="1" stroke-width="6" stroke-linecap="round" />
            <line x1="653.329" y1="720" x2="764.437" y2="720" stroke="#000000" stroke-opacity="1" stroke-width="6" stroke-linecap="round" />
            <line x1="653.329" y1="680" x2="653.329" y2="720" stroke="#000000" stroke-opacity="1" stroke-width="6" stroke-linecap="round" />
            <line x1="534.018" y1="680" x2="653.329" y2="680" stroke="#000000" stroke-opacity="1" stroke-width="6" stroke-linecap="round" />
            <line x1="534.018" y1="620" x2="534.018" y2="680" stroke="#000000" stroke-opacity="1" stroke-width="6" stroke-linecap="round" />
            <line x1="534.018" y1="560" x2="700.207" y2="560" stroke="#000000" stroke-opacity="1" stroke-width="6" stroke-linecap="round" />
            <line x1="534.018" y1="620" x2="534.018" y2="560" stroke="#000000" stroke-opacity="1" stroke-width="6" stroke-linecap="round" />
            <line x1="378.793" y1="620" x2="534.018" y2="620" stroke="#000000" stroke-opacity="1" stroke-width="6" stroke-linecap="round" />
            <line x1="378.793" y1="747.5" x2="378.793" y2="620" stroke="#000000" stroke-opacity="1" stroke-width="6" stroke-linecap="round" />
            <line x1="783.16" y1="1040" x2="805.066" y2="1040" stroke="#000000" stroke-opacity="1" stroke-width="6" stroke-linecap="round" />
            <line x1="783.16" y1="1080" x2="783.16" y2="1040" stroke="#000000" stroke-opacity="1" stroke-width="6" stroke-linecap="round" />
            <line x1="783.16" y1="1120" x2="869.245" y2="1120" stroke="#000000" stroke-opacity="1" stroke-width="6" stroke-linecap="round" />
            <line x1="783.16" y1="1080" x2="783.16" y2="1120" stroke="#000000" stroke-opacity="1" stroke-width="6" stroke-linecap="round" />
            <line x1="641.593" y1="1080" x2="783.16" y2="1080" stroke="#000000" stroke-opacity="1" stroke-width="6" stroke-linecap="round" />
            <line x1="641.593" y1="1020" x2="641.593" y2="1080" stroke="#000000" stroke-opacity="1" stroke-width="6" stroke-linecap="round" />
            <line x1="641.593" y1="960" x2="760.477" y2="960" stroke="#000000" stroke-opacity="1" stroke-width="6" stroke-linecap="round" />
            <line x1="641.593" y1="1020" x2="641.593" y2="960" stroke="#000000" stroke-opacity="1" stroke-width="6" stroke-linecap="round" />
            <line x1="577.536" y1="1020" x2="641.593" y2="1020" stroke="#000000" stroke-opacity="1" stroke-width="6" stroke-linecap="round" />
            <line x1="577.536" y1="950" x2="577.536" y2="1020" stroke="#000000" stroke-opacity="1" stroke-width="6" stroke-linecap="round" />
            <line x1="577.536" y1="880" x2="628.647" y2="880" stroke="#000000" stroke-opacity="1" stroke-width="6" stroke-linecap="round" />
            <line x1="577.536" y1="950" x2="577.536" y2="880" stroke="#000000" stroke-opacity="1" stroke-width="6" stroke-linecap="round" />
            <line x1="439.669" y1="950" x2="577.536" y2="950" stroke="#000000" stroke-opacity="1" stroke-width="6" stroke-linecap="round" />
            <line x1="439.669" y1="875" x2="439.669" y2="950" stroke="#000000" stroke-opacity="1" stroke-width="6" stroke-linecap="round" />
            <line x1="439.669" y1="800" x2="468.182" y2="800" stroke="#000000" stroke-opacity="1" stroke-width="6" stroke-linecap="round" />
            <line x1="439.669" y1="875" x2="439.669" y2="800" stroke="#000000" stroke-opacity="1" stroke-width="6" stroke-linecap="round" />
            <line x1="378.793" y1="875" x2="439.669" y2="875" stroke="#000000" stroke-opacity="1" stroke-width="6" stroke-linecap="round" />
            <line x1="378.793" y1="747.5" x2="378.793" y2="875" stroke="#000000" stroke-opacity="1" stroke-width="6" stroke-linecap="round" />
            <line x1="337.391" y1="747.5" x2="378.793" y2="747.5" stroke="#000000" stroke-opacity="1" stroke-width="6" stroke-linecap="round" />
            <line x1="337.391" y1="1014.44" x2="337.391" y2="747.5" stroke="#000000" stroke-opacity="1" stroke-width="6" stroke-linecap="round" />
            <line x1="499.85" y1="1200" x2="618.774" y2="1200" stroke="#000000" stroke-opacity="1" stroke-width="6" stroke-linecap="round" />
            <line x1="499.85" y1="1281.37" x2="499.85" y2="1200" stroke="#000000" stroke-opacity="1" stroke-width="6" stroke-linecap="round" />
            <line x1="664.933" y1="1280" x2="674.06" y2="1280" stroke="#000000" stroke-opacity="1" stroke-width="6" stroke-linecap="round" />
            <line x1="664.933" y1="1362.74" x2="664.933" y2="1280" stroke="#000000" stroke-opacity="1" stroke-width="6" stroke-linecap="round" />
            <line x1="693.772" y1="1360" x2="770.241" y2="1360" stroke="#000000" stroke-opacity="1" stroke-width="6" stroke-linecap="round" />
            <line x1="693.772" y1="1445.49" x2="693.772" y2="1360" stroke="#000000" stroke-opacity="1" stroke-width="6" stroke-linecap="round" />
            <line x1="734.128" y1="1440" x2="835.684" y2="1440" stroke="#000000" stroke-opacity="1" stroke-width="6" stroke-linecap="round" />
            <line x1="734.128" y1="1530.97" x2="734.128" y2="1440" stroke="#000000" stroke-opacity="1" stroke-width="6" stroke-linecap="round" />
            <line x1="861.428" y1="1520" x2="975.508" y2="1520" stroke="#000000" stroke-opacity="1" stroke-width="6" stroke-linecap="round" />
            <line x1="861.428" y1="1621.94" x2="861.428" y2="1520" stroke="#000000" stroke-opacity="1" stroke-width="6" stroke-linecap="round" />
            <line x1="898.929" y1="1600" x2="1064.04" y2="1600" stroke="#000000" stroke-opacity="1" stroke-width="6" stroke-linecap="round" />
            <line x1="898.929" y1="1723.88" x2="898.929" y2="1600" stroke="#000000" stroke-opacity="1" stroke-width="6" stroke-linecap="round" />
            <line x1="970.7" y1="1680" x2="1102.83" y2="1680" stroke="#000000" stroke-opacity="1" stroke-width="6" stroke-linecap="round" />
            <line x1="970.7" y1="1720" x2="970.7" y2="1680" stroke="#000000" stroke-opacity="1" stroke-width="6" stroke-linecap="round" />
            <line x1="970.7" y1="1760" x2="1141.8" y2="1760" stroke="#000000" stroke-opacity="1" stroke-width="6" stroke-linecap="round" />
            <line x1="970.7" y1="1720" x2="970.7" y2="1760" stroke="#000000" stroke-opacity="1" stroke-width="6" stroke-linecap="round" />
            <line x1="959.55" y1="1720" x2="970.7" y2="1720" stroke="#000000" stroke-opacity="1" stroke-width="6" stroke-linecap="round" />
            <line x1="959.55" y1="1847.76" x2="959.55" y2="1720" stroke="#000000" stroke-opacity="1" stroke-width="6" stroke-linecap="round" />
            <line x1="966.375" y1="1840" x2="1042.42" y2="1840" stroke="#000000" stroke-opacity="1" stroke-width="6" stroke-linecap="round" />
            <line x1="966.375" y1="1975.53" x2="966.375" y2="1840" stroke="#000000" stroke-opacity="1" stroke-width="6" stroke-linecap="round" />
            <line x1="1032.95" y1="1920" x2="1163.23" y2="1920" stroke="#000000" stroke-opacity="1" stroke-width="6" stroke-linecap="round" />
            <line x1="1032.95" y1="2111.05" x2="1032.95" y2="1920" stroke="#000000" stroke-opacity="1" stroke-width="6" stroke-linecap="round" />
            <line x1="1105.64" y1="2000" x2="1138.22" y2="2000" stroke="#000000" stroke-opacity="1" stroke-width="6" stroke-linecap="round" />
            <line x1="1105.64" y1="2040" x2="1105.64" y2="2000" stroke="#000000" stroke-opacity="1" stroke-width="6" stroke-linecap="round" />
            <line x1="1105.64" y1="2080" x2="1197.03" y2="2080" stroke="#000000" stroke-opacity="1" stroke-width="6" stroke-linecap="round" />
            <line x1="1105.64" y1="2040" x2="1105.64" y2="2080" stroke="#000000" stroke-opacity="1" stroke-width="6" stroke-linecap="round" />
            <line x1="1066.35" y1="2040" x2="1105.64" y2="2040" stroke="#000000" stroke-opacity="1" stroke-width="6" stroke-linecap="round" />
            <line x1="1066.35" y1="2302.11" x2="1066.35" y2="2040" stroke="#000000" stroke-opacity="1" stroke-width="6" stroke-linecap="round" />
            <line x1="1138.7" y1="2720" x2="1253.94" y2="2720" stroke="#000000" stroke-opacity="1" stroke-width="6" stroke-linecap="round" />
            <line x1="1138.7" y1="2889.69" x2="1138.7" y2="2720" stroke="#000000" stroke-opacity="1" stroke-width="6" stroke-linecap="round" />
            <line x1="1594.13" y1="2880" x2="1751.69" y2="2880" stroke="#000000" stroke-opacity="1" stroke-width="6" stroke-linecap="round" />
            <line x1="1594.13" y1="2920" x2="1594.13" y2="2880" stroke="#000000" stroke-opacity="1" stroke-width="6" stroke-linecap="round" />
            <line x1="1594.13" y1="2960" x2="1612.05" y2="2960" stroke="#000000" stroke-opacity="1" stroke-width="6" stroke-linecap="round" />
            <line x1="1594.13" y1="2920" x2="1594.13" y2="2960" stroke="#000000" stroke-opacity="1" stroke-width="6" stroke-linecap="round" />
            <line x1="1462.03" y1="2920" x2="1594.13" y2="2920" stroke="#000000" stroke-opacity="1" stroke-width="6" stroke-linecap="round" />
            <line x1="1462.03" y1="2860" x2="1462.03" y2="2920" stroke="#000000" stroke-opacity="1" stroke-width="6" stroke-linecap="round" />
            <line x1="1462.03" y1="2800" x2="1551.09" y2="2800" stroke="#000000" stroke-opacity="1" stroke-width="6" stroke-linecap="round" />
            <line x1="1462.03" y1="2860" x2="1462.03" y2="2800" stroke="#000000" stroke-opacity="1" stroke-width="6" stroke-linecap="round" />
            <line x1="1293.38" y1="2860" x2="1462.03" y2="2860" stroke="#000000" stroke-opacity="1" stroke-width="6" stroke-linecap="round" />
            <line x1="1293.38" y1="3059.37" x2="1293.38" y2="2860" stroke="#000000" stroke-opacity="1" stroke-width="6" stroke-linecap="round" />
            <line x1="1669.19" y1="3280" x2="1817.04" y2="3280" stroke="#000000" stroke-opacity="1" stroke-width="6" stroke-linecap="round" />
            <line x1="1669.19" y1="3320" x2="1669.19" y2="3280" stroke="#000000" stroke-opacity="1" stroke-width="6" stroke-linecap="round" />
            <line x1="1669.19" y1="3360" x2="1715.53" y2="3360" stroke="#000000" stroke-opacity="1" stroke-width="6" stroke-linecap="round" />
            <line x1="1669.19" y1="3320" x2="1669.19" y2="3360" stroke="#000000" stroke-opacity="1" stroke-width="6" stroke-linecap="round" />
            <line x1="1543.93" y1="3320" x2="1669.19" y2="3320" stroke="#000000" stroke-opacity="1" stroke-width="6" stroke-linecap="round" />
            <line x1="1543.93" y1="3417.5" x2="1543.93" y2="3320" stroke="#000000" stroke-opacity="1" stroke-width="6" stroke-linecap="round" />
            <line x1="1765.25" y1="3600" x2="1867.53" y2="3600" stroke="#000000" stroke-opacity="1" stroke-width="6" stroke-linecap="round" />
            <line x1="1765.25" y1="3660" x2="1765.25" y2="3600" stroke="#000000" stroke-opacity="1" stroke-width="6" stroke-linecap="round" />
            <line x1="1879.46" y1="3680" x2="2040" y2="3680" stroke="#000000" stroke-opacity="1" stroke-width="6" stroke-linecap="round" />
            <line x1="1879.46" y1="3720" x2="1879.46" y2="3680" stroke="#000000" stroke-opacity="1" stroke-width="6" stroke-linecap="round" />
            <line x1="1879.46" y1="3760" x2="1948.69" y2="3760" stroke="#000000" stroke-opacity="1" stroke-width="6" stroke-linecap="round" />
            <line x1="1879.46" y1="3720" x2="1879.46" y2="3760" stroke="#000000" stroke-opacity="1" stroke-width="6" stroke-linecap="round" />
            <line x1="1765.25" y1="3720" x2="1879.46" y2="3720" stroke="#000000" stroke-opacity="1" stroke-width="6" stroke-linecap="round" />
            <line x1="1765.25" y1="3660" x2="1765.25" y2="3720" stroke="#000000" stroke-opacity="1" stroke-width="6" stroke-linecap="round" />
            <line x1="1635.79" y1="3660" x2="1765.25" y2="3660" stroke="#000000" stroke-opacity="1" stroke-width="6" stroke-linecap="round" />
            <line x1="1635.79" y1="3590" x2="1635.79" y2="3660" stroke="#000000" stroke-opacity="1" stroke-width="6" stroke-linecap="round" />
            <line x1="1635.79" y1="3520" x2="1648.74" y2="3520" stroke="#000000" stroke-opacity="1" stroke-width="6" stroke-linecap="round" />
            <line x1="1635.79" y1="3590" x2="1635.79" y2="3520" stroke="#000000" stroke-opacity="1" stroke-width="6" stroke-linecap="round" />
            <line x1="1593.32" y1="3590" x2="1635.79" y2="3590" stroke="#000000" stroke-opacity="1" stroke-width="6" stroke-linecap="round" />
            <line x1="1593.32" y1="3515" x2="1593.32" y2="3590" stroke="#000000" stroke-opacity="1" stroke-width="6" stroke-linecap="round" />
            <line x1="1593.32" y1="3440" x2="1619.8" y2="3440" stroke="#000000" stroke-opacity="1" stroke-width="6" stroke-linecap="round" />
            <line x1="1593.32" y1="3515" x2="1593.32" y2="3440" stroke="#000000" stroke-opacity="1" stroke-width="6" stroke-linecap="round" />
            <line x1="1543.93" y1="3515" x2="1593.32" y2="3515" stroke="#000000" stroke-opacity="1" stroke-width="6" stroke-linecap="round" />
            <line x1="1543.93" y1="3417.5" x2="1543.93" y2="3515" stroke="#000000" stroke-opacity="1" stroke-width="6" stroke-linecap="round" />
            <line x1="1450.14" y1="3417.5" x2="1543.93" y2="3417.5" stroke="#000000" stroke-opacity="1" stroke-width="6" stroke-linecap="round" />
            <line x1="1450.14" y1="3258.75" x2="1450.14" y2="3417.5" stroke="#000000" stroke-opacity="1" stroke-width="6" stroke-linecap="round" />
            <line x1="1515.34" y1="3040" x2="1677.24" y2="3040" stroke="#000000" stroke-opacity="1" stroke-width="6" stroke-linecap="round" />
            <line x1="1515.34" y1="3100" x2="1515.34" y2="3040" stroke="#000000" stroke-opacity="1" stroke-width="6" stroke-linecap="round" />
            <line x1="1677.07" y1="3120" x2="1730.49" y2="3120" stroke="#000000" stroke-opacity="1" stroke-width="6" stroke-linecap="round" />
            <line x1="1677.07" y1="3160" x2="1677.07" y2="3120" stroke="#000000" stroke-opacity="1" stroke-width="6" stroke-linecap="round" />
            <line x1="1677.07" y1="3200" x2="1754.74" y2="3200" stroke="#000000" stroke-opacity="1" stroke-width="6" stroke-linecap="round" />
            <line x1="1677.07" y1="3160" x2="1677.07" y2="3200" stroke="#000000" stroke-opacity="1" stroke-width="6" stroke-linecap="round" />
            <line x1="1515.34" y1="3160" x2="1677.07" y2="3160" stroke="#000000" stroke-opacity="1" stroke-width="6" stroke-linecap="round" />
            <line x1="1515.34" y1="3100" x2="1515.34" y2="3160" stroke="#000000" stroke-opacity="1" stroke-width="6" stroke-linecap="round" />
            <line x1="1450.14" y1="3100" x2="1515.34" y2="3100" stroke="#000000" stroke-opacity="1" stroke-width="6" stroke-linecap="round" />
            <line x1="1450.14" y1="3258.75" x2="1450.14" y2="3100" stroke="#000000" stroke-opacity="1" stroke-width="6" stroke-linecap="round" />
            <line x1="1293.38" y1="3258.75" x2="1450.14" y2="3258.75" stroke="#000000" stroke-opacity="1" stroke-width="6" stroke-linecap="round" />
            <line x1="1293.38" y1="3059.37" x2="1293.38" y2="3258.75" stroke="#000000" stroke-opacity="1" stroke-width="6" stroke-linecap="round" />
            <line x1="1138.7" y1="3059.37" x2="1293.38" y2="3059.37" stroke="#000000" stroke-opacity="1" stroke-width="6" stroke-linecap="round" />
            <line x1="1138.7" y1="2889.69" x2="1138.7" y2="3059.37" stroke="#000000" stroke-opacity="1" stroke-width="6" stroke-linecap="round" />
            <line x1="1081.3" y1="2889.69" x2="1138.7" y2="2889.69" stroke="#000000" stroke-opacity="1" stroke-width="6" stroke-linecap="round" />
            <line x1="1081.3" y1="2564.22" x2="1081.3" y2="2889.69" stroke="#000000" stroke-opacity="1" stroke-width="6" stroke-linecap="round" />
            <line x1="1698.01" y1="2560" x2="1746.84" y2="2560" stroke="#000000" stroke-opacity="1" stroke-width="6" stroke-linecap="round" />
            <line x1="1698.01" y1="2600" x2="1698.01" y2="2560" stroke="#000000" stroke-opacity="1" stroke-width="6" stroke-linecap="round" />
            <line x1="1698.01" y1="2640" x2="1834.58" y2="2640" stroke="#000000" stroke-opacity="1" stroke-width="6" stroke-linecap="round" />
            <line x1="1698.01" y1="2600" x2="1698.01" y2="2640" stroke="#000000" stroke-opacity="1" stroke-width="6" stroke-linecap="round" />
            <line x1="1544.92" y1="2600" x2="1698.01" y2="2600" stroke="#000000" stroke-opacity="1" stroke-width="6" stroke-linecap="round" />
            <line x1="1544.92" y1="2540" x2="1544.92" y2="2600" stroke="#000000" stroke-opacity="1" stroke-width="6" stroke-linecap="round" />
            <line x1="1544.92" y1="2480" x2="1656.31" y2="2480" stroke="#000000" stroke-opacity="1" stroke-width="6" stroke-linecap="round" />
            <line x1="1544.92" y1="2540" x2="1544.92" y2="2480" stroke="#000000" stroke-opacity="1" stroke-width="6" stroke-linecap="round" />
            <line x1="1472.55" y1="2540" x2="1544.92" y2="2540" stroke="#000000" stroke-opacity="1" stroke-width="6" stroke-linecap="round" />
            <line x1="1472.55" y1="2470" x2="1472.55" y2="2540" stroke="#000000" stroke-opacity="1" stroke-width="6" stroke-linecap="round" />
            <line x1="1472.55" y1="2400" x2="1502.02" y2="2400" stroke="#000000" stroke-opacity="1" stroke-width="6" stroke-linecap="round" />
            <line x1="1472.55" y1="2470" x2="1472.55" y2="2400" stroke="#000000" stroke-opacity="1" stroke-width="6" stroke-linecap="round" />
            <line x1="1397.5" y1="2470" x2="1472.55" y2="2470" stroke="#000000" stroke-opacity="1" stroke-width="6" stroke-linecap="round" />
            <line x1="1397.5" y1="2395" x2="1397.5" y2="2470" stroke="#000000" stroke-opacity="1" stroke-width="6" stroke-linecap="round" />
            <line x1="1397.5" y1="2320" x2="1505.15" y2="2320" stroke="#000000" stroke-opacity="1" stroke-width="6" stroke-linecap="round" />
            <line x1="1397.5" y1="2395" x2="1397.5" y2="2320" stroke="#000000" stroke-opacity="1" stroke-width="6" stroke-linecap="round" />
            <line x1="1248.3" y1="2395" x2="1397.5" y2="2395" stroke="#000000" stroke-opacity="1" stroke-width="6" stroke-linecap="round" />
            <line x1="1248.3" y1="2317.5" x2="1248.3" y2="2395" stroke="#000000" stroke-opacity="1" stroke-width="6" stroke-linecap="round" />
            <line x1="1248.3" y1="2240" x2="1324.68" y2="2240" stroke="#000000" stroke-opacity="1" stroke-width="6" stroke-linecap="round" />
            <line x1="1248.3" y1="2317.5" x2="1248.3" y2="2240" stroke="#000000" stroke-opacity="1" stroke-width="6" stroke-linecap="round" />
            <line x1="1121.09" y1="2317.5" x2="1248.3" y2="2317.5" stroke="#000000" stroke-opacity="1" stroke-width="6" stroke-linecap="round" />
            <line x1="1121.09" y1="2238.75" x2="1121.09" y2="2317.5" stroke="#000000" stroke-opacity="1" stroke-width="6" stroke-linecap="round" />
            <line x1="1121.09" y1="2160" x2="1142.89" y2="2160" stroke="#000000" stroke-opacity="1" stroke-width="6" stroke-linecap="round" />
            <line x1="1121.09" y1="2238.75" x2="1121.09" y2="2160" stroke="#000000" stroke-opacity="1" stroke-width="6" stroke-linecap="round" />
            <line x1="1081.3" y1="2238.75" x2="1121.09" y2="2238.75" stroke="#000000" stroke-opacity="1" stroke-width="6" stroke-linecap="round" />
            <line x1="1081.3" y1="2564.22" x2="1081.3" y2="2238.75" stroke="#000000" stroke-opacity="1" stroke-width="6" stroke-linecap="round" />
            <line x1="1066.35" y1="2564.22" x2="1081.3" y2="2564.22" stroke="#000000" stroke-opacity="1" stroke-width="6" stroke-linecap="round" />
            <line x1="1066.35" y1="2302.11" x2="1066.35" y2="2564.22" stroke="#000000" stroke-opacity="1" stroke-width="6" stroke-linecap="round" />
            <line x1="1032.95" y1="2302.11" x2="1066.35" y2="2302.11" stroke="#000000" stroke-opacity="1" stroke-width="6" stroke-linecap="round" />
            <line x1="1032.95" y1="2111.05" x2="1032.95" y2="2302.11" stroke="#000000" stroke-opacity="1" stroke-width="6" stroke-linecap="round" />
            <line x1="966.375" y1="2111.05" x2="1032.95" y2="2111.05" stroke="#000000" stroke-opacity="1" stroke-width="6" stroke-linecap="round" />
            <line x1="966.375" y1="1975.53" x2="966.375" y2="2111.05" stroke="#000000" stroke-opacity="1" stroke-width="6" stroke-linecap="round" />
            <line x1="959.55" y1="1975.53" x2="966.375" y2="1975.53" stroke="#000000" stroke-opacity="1" stroke-width="6" stroke-linecap="round" />
            <line x1="959.55" y1="1847.76" x2="959.55" y2="1975.53" stroke="#000000" stroke-opacity="1" stroke-width="6" stroke-linecap="round" />
            <line x1="898.929" y1="1847.76" x2="959.55" y2="1847.76" stroke="#000000" stroke-opacity="1" stroke-width="6" stroke-linecap="round" />
            <line x1="898.929" y1="1723.88" x2="898.929" y2="1847.76" stroke="#000000" stroke-opacity="1" stroke-width="6" stroke-linecap="round" />
            <line x1="861.428" y1="1723.88" x2="898.929" y2="1723.88" stroke="#000000" stroke-opacity="1" stroke-width="6" stroke-linecap="round" />
            <line x1="861.428" y1="1621.94" x2="861.428" y2="1723.88" stroke="#000000" stroke-opacity="1" stroke-width="6" stroke-linecap="round" />
            <line x1="734.128" y1="1621.94" x2="861.428" y2="1621.94" stroke="#000000" stroke-opacity="1" stroke-width="6" stroke-linecap="round" />
            <line x1="734.128" y1="1530.97" x2="734.128" y2="1621.94" stroke="#000000" stroke-opacity="1" stroke-width="6" stroke-linecap="round" />
            <line x1="693.772" y1="1530.97" x2="734.128" y2="1530.97" stroke="#000000" stroke-opacity="1" stroke-width="6" stroke-linecap="round" />
            <line x1="693.772" y1="1445.49" x2="693.772" y2="1530.97" stroke="#000000" stroke-opacity="1" stroke-width="6" stroke-linecap="round" />
            <line x1="664.933" y1="1445.49" x2="693.772" y2="1445.49" stroke="#000000" stroke-opacity="1" stroke-width="6" stroke-linecap="round" />
            <line x1="664.933" y1="1362.74" x2="664.933" y2="1445.49" stroke="#000000" stroke-opacity="1" stroke-width="6" stroke-linecap="round" />
            <line x1="499.85" y1="1362.74" x2="664.933" y2="1362.74" stroke="#000000" stroke-opacity="1" stroke-width="6" stroke-linecap="round" />
            <line x1="499.85" y1="1281.37" x2="499.85" y2="1362.74" stroke="#000000" stroke-opacity="1" stroke-width="6" stroke-linecap="round" />
            <line x1="337.391" y1="1281.37" x2="499.85" y2="1281.37" stroke="#000000" stroke-opacity="1" stroke-width="6" stroke-linecap="round" />
            <line x1="337.391" y1="1014.44" x2="337.391" y2="1281.37" stroke="#000000" stroke-opacity="1" stroke-width="6" stroke-linecap="round" />
            <line x1="326.428" y1="1014.44" x2="337.391" y2="1014.44" stroke="#000000" stroke-opacity="1" stroke-width="6" stroke-linecap="round" />
            <line x1="326.428" y1="747.218" x2="326.428" y2="1014.44" stroke="#000000" stroke-opacity="1" stroke-width="6" stroke-linecap="round" />
            <line x1="284.717" y1="747.218" x2="326.428" y2="747.218" stroke="#000000" stroke-opacity="1" stroke-width="6" stroke-linecap="round" />
            <line x1="284.717" y1="573.609" x2="284.717" y2="747.218" stroke="#000000" stroke-opacity="1" stroke-width="6" stroke-linecap="round" />
            <line x1="131.801" y1="573.609" x2="284.717" y2="573.609" stroke="#000000" stroke-opacity="1" stroke-width="6" stroke-linecap="round" />
            <line x1="131.801" y1="446.804" x2="131.801" y2="573.609" stroke="#000000" stroke-opacity="1" stroke-width="6" stroke-linecap="round" />
            <line x1="128.322" y1="446.804" x2="131.801" y2="446.804" stroke="#000000" stroke-opacity="1" stroke-width="6" stroke-linecap="round" />
            <line x1="128.322" y1="258.402" x2="128.322" y2="446.804" stroke="#000000" stroke-opacity="1" stroke-width="6" stroke-linecap="round" />
            <line x1="0" y1="258.402" x2="128.322" y2="258.402" stroke="#000000" stroke-opacity="1" stroke-width="6" stroke-linecap="round" />
            <line x1="0" y1="2119.2" x2="0" y2="258.402" stroke="#000000" stroke-opacity="1" stroke-width="6" stroke-linecap="round" />
            <line x1="47.9965" y1="3920" x2="164.015" y2="3920" stroke="#000000" stroke-opacity="1" stroke-width="6" stroke-linecap="round" />
            <line x1="47.9965" y1="3980" x2="47.9965" y2="3920" stroke="#000000" stroke-opacity="1" stroke-width="6" stroke-linecap="round" />
            <line x1="140.364" y1="4000" x2="230.987" y2="4000" stroke="#000000" stroke-opacity="1" stroke-width="6" stroke-linecap="round" />
            <line x1="140.364" y1="4040" x2="140.364" y2="4000" stroke="#000000" stroke-opacity="1" stroke-width="6" stroke-linecap="round" />
            <line x1="140.364" y1="4080" x2="170.982" y2="4080" stroke="#000000" stroke-opacity="1" stroke-width="6" stroke-linecap="round" />
            <line x1="140.364" y1="4040" x2="140.364" y2="4080" stroke="#000000" stroke-opacity="1" stroke-width="6" stroke-linecap="round" />
            <line x1="47.9965" y1="4040" x2="140.364" y2="4040" stroke="#000000" stroke-opacity="1" stroke-width="6" stroke-linecap="round" />
            <line x1="47.9965" y1="3980" x2="47.9965" y2="4040" stroke="#000000" stroke-opacity="1" stroke-width="6" stroke-linecap="round" />
            <line x1="0" y1="3980" x2="47.9965" y2="3980" stroke="#000000" stroke-opacity="1" stroke-width="6" stroke-linecap="round" />
            <line x1="0" y1="2119.2" x2="0" y2="3980" stroke="#000000" stroke-opacity="1" stroke-width="6" stroke-linecap="round" />
            <line x1="0" y1="3840" x2="96.6836" y2="3840" stroke="#000000" stroke-opacity="1" stroke-width="6" stroke-linecap="round" />
            <line x1="0" y1="2119.2" x2="0" y2="3840" stroke="#000000" stroke-opacity="1" stroke-width="6" stroke-linecap="round" />
        </g>
        <g>
            <a target="_blank" href="../species/OPHHO.html">
                <g transform="translate( 96.6836, 3840 )">
                    <image x="10" y="-50" width="100" height="100" xlink:href="../data/thumbs/OPHHO.png" />
                </g>
            </a>
            <a target="_blank" href="../species/ANOCA.html">
                <g transform="translate( 170.982, 4080 )">
                    <image x="10" y="-50" width="100" height="100" xlink:href="../data/thumbs/ANOCA.png" />
                </g>
            </a>
            <a target="_blank" href="../species/CHAVO.html">
                <g transform="translate( 230.987, 4000 )">
                    <image x="10" y="-50" width="100" height="100" xlink:href="../data/thumbs/CHAVO.png" />
                </g>
            </a>
            <a target="_blank" href="../species/CAPCA.html">
                <g transform="translate( 164.015, 3920 )">
                    <image x="10" y="-50" width="100" height="100" xlink:href="../data/thumbs/CAPCA.png" />
                </g>
            </a>
            <a target="_blank" href="../species/TAEGU.html">
                <g transform="translate( 1142.89, 2160 )">
                    <image x="10" y="-50" width="100" height="100" xlink:href="../data/thumbs/TAEGU.png" />
                </g>
            </a>
            <a target="_blank" href="../species/GEOFO.html">
                <g transform="translate( 1324.68, 2240 )">
                    <image x="10" y="-50" width="100" height="100" xlink:href="../data/thumbs/GEOFO.png" />
                </g>
            </a>
            <a target="_blank" href="../species/MERNU.html">
                <g transform="translate( 1505.15, 2320 )">
                    <image x="10" y="-50" width="100" height="100" xlink:href="../data/thumbs/MERNU.png" />
                </g>
            </a>
            <a target="_blank" href="../species/PELCR.html">
                <g transform="translate( 1502.02, 2400 )">
                    <image x="10" y="-50" width="100" height="100" xlink:href="../data/thumbs/PELCR.png" />
                </g>
            </a>
            <a target="_blank" href="../species/MELUN.html">
                <g transform="translate( 1656.31, 2480 )">
                    <image x="10" y="-50" width="100" height="100" xlink:href="../data/thumbs/MELUN.png" />
                </g>
            </a>
            <a target="_blank" href="../species/MESUN.html">
                <g transform="translate( 1834.58, 2640 )">
                    <image x="10" y="-50" width="100" height="100" xlink:href="../data/thumbs/MESUN.png" />
                </g>
            </a>
            <a target="_blank" href="../species/FALPE.html">
                <g transform="translate( 1746.84, 2560 )">
                    <image x="10" y="-50" width="100" height="100" xlink:href="../data/thumbs/FALPE.png" />
                </g>
            </a>
            <a target="_blank" href="../species/NESNO.html">
                <g transform="translate( 1754.74, 3200 )">
                    <image x="10" y="-50" width="100" height="100" xlink:href="../data/thumbs/NESNO.png" />
                </g>
            </a>
            <a target="_blank" href="../species/COLLI.html">
                <g transform="translate( 1730.49, 3120 )">
                    <image x="10" y="-50" width="100" height="100" xlink:href="../data/thumbs/COLLI.png" />
                </g>
            </a>
            <a target="_blank" href="../species/CATAU.html">
                <g transform="translate( 1677.24, 3040 )">
                    <image x="10" y="-50" width="100" height="100" xlink:href="../data/thumbs/CATAU.png" />
                </g>
            </a>
            <a target="_blank" href="../species/STRCA.html">
                <g transform="translate( 1619.8, 3440 )">
                    <image x="10" y="-50" width="100" height="100" xlink:href="../data/thumbs/STRCA.png" />
                </g>
            </a>
            <a target="_blank" href="../species/TINMA.html">
                <g transform="translate( 1648.74, 3520 )">
                    <image x="10" y="-50" width="100" height="100" xlink:href="../data/thumbs/TINMA.png" />
                </g>
            </a>
            <a target="_blank" href="../species/HALAL.html">
                <g transform="translate( 1948.69, 3760 )">
                    <image x="10" y="-50" width="100" height="100" xlink:href="../data/thumbs/HALAL.png" />
                </g>
            </a>
            <a target="_blank" href="../species/GAVST.html">
                <g transform="translate( 2040, 3680 )">
                    <image x="10" y="-50" width="100" height="100" xlink:href="../data/thumbs/GAVST.png" />
                </g>
            </a>
            <a target="_blank" href="../species/COLST.html">
                <g transform="translate( 1867.53, 3600 )">
                    <image x="10" y="-50" width="100" height="100" xlink:href="../data/thumbs/COLST.png" />
                </g>
            </a>
            <a target="_blank" href="../species/CARCR.html">
                <g transform="translate( 1715.53, 3360 )">
                    <image x="10" y="-50" width="100" height="100" xlink:href="../data/thumbs/CARCR.png" />
                </g>
            </a>
            <a target="_blank" href="../species/CALAN.html">
                <g transform="translate( 1817.04, 3280 )">
                    <image x="10" y="-50" width="100" height="100" xlink:href="../data/thumbs/CALAN.png" />
                </g>
            </a>
            <a target="_blank" href="../species/CHAPE.html">
                <g transform="translate( 1551.09, 2800 )">
                    <image x="10" y="-50" width="100" height="100" xlink:href="../data/thumbs/CHAPE.png" />
                </g>
            </a>
            <a target="_blank" href="../species/PHACA.html">
                <g transform="translate( 1612.05, 2960 )">
                    <image x="10" y="-50" width="100" height="100" xlink:href="../data/thumbs/PHACA.png" />
                </g>
            </a>
            <a target="_blank" href="../species/APAVI.html">
                <g transform="translate( 1751.69, 2880 )">
                    <image x="10" y="-50" width="100" height="100" xlink:href="../data/thumbs/APAVI.png" />
                </g>
            </a>
            <a target="_blank" href="../species/ANAPL.html">
                <g transform="translate( 1253.94, 2720 )">
                    <image x="10" y="-50" width="100" height="100" xlink:href="../data/thumbs/ANAPL.png" />
                </g>
            </a>
            <a target="_blank" href="../species/ACACH.html">
                <g transform="translate( 1197.03, 2080 )">
                    <image x="10" y="-50" width="100" height="100" xlink:href="../data/thumbs/ACACH.png" />
                </g>
            </a>
            <a target="_blank" href="../species/NIPNI.html">
                <g transform="translate( 1138.22, 2000 )">
                    <image x="10" y="-50" width="100" height="100" xlink:href="../data/thumbs/NIPNI.png" />
                </g>
            </a>
            <a target="_blank" href="../species/PODCR.html">
                <g transform="translate( 1163.23, 1920 )">
                    <image x="10" y="-50" width="100" height="100" xlink:href="../data/thumbs/PODCR.png" />
                </g>
            </a>
            <a target="_blank" href="../species/CHLUN.html">
                <g transform="translate( 1042.42, 1840 )">
                    <image x="10" y="-50" width="100" height="100" xlink:href="../data/thumbs/CHLUN.png" />
                </g>
            </a>
            <a target="_blank" href="../species/PHORU.html">
                <g transform="translate( 1141.8, 1760 )">
                    <image x="10" y="-50" width="100" height="100" xlink:href="../data/thumbs/PHORU.png" />
                </g>
            </a>
            <a target="_blank" href="../species/APTFO.html">
                <g transform="translate( 1102.83, 1680 )">
                    <image x="10" y="-50" width="100" height="100" xlink:href="../data/thumbs/APTFO.png" />
                </g>
            </a>
            <a target="_blank" href="../species/MANVI.html">
                <g transform="translate( 1064.04, 1600 )">
                    <image x="10" y="-50" width="100" height="100" xlink:href="../data/thumbs/MANVI.png" />
                </g>
            </a>
            <a target="_blank" href="../species/AMISS.html">
                <g transform="translate( 975.508, 1520 )">
                    <image x="10" y="-50" width="100" height="100" xlink:href="../data/thumbs/AMISS.png" />
                </g>
            </a>
            <a target="_blank" href="../species/PYGAD.html">
                <g transform="translate( 835.684, 1440 )">
                    <image x="10" y="-50" width="100" height="100" xlink:href="../data/thumbs/PYGAD.png" />
                </g>
            </a>
            <a target="_blank" href="../species/EGRGA.html">
                <g transform="translate( 770.241, 1360 )">
                    <image x="10" y="-50" width="100" height="100" xlink:href="../data/thumbs/EGRGA.png" />
                </g>
            </a>
            <a target="_blank" href="../species/TYTAL.html">
                <g transform="translate( 674.06, 1280 )">
                    <image x="10" y="-50" width="100" height="100" xlink:href="../data/thumbs/TYTAL.png" />
                </g>
            </a>
            <a target="_blank" href="../species/PICPU.html">
                <g transform="translate( 618.774, 1200 )">
                    <image x="10" y="-50" width="100" height="100" xlink:href="../data/thumbs/PICPU.png" />
                </g>
            </a>
            <a target="_blank" href="../species/TAUER.html">
                <g transform="translate( 468.182, 800 )">
                    <image x="10" y="-50" width="100" height="100" xlink:href="../data/thumbs/TAUER.png" />
                </g>
            </a>
            <a target="_blank" href="../species/PTEGU.html">
                <g transform="translate( 628.647, 880 )">
                    <image x="10" y="-50" width="100" height="100" xlink:href="../data/thumbs/PTEGU.png" />
                </g>
            </a>
            <a target="_blank" href="../species/HALLE.html">
                <g transform="translate( 760.477, 960 )">
                    <image x="10" y="-50" width="100" height="100" xlink:href="../data/thumbs/HALLE.png" />
                </g>
            </a>
            <a target="_blank" href="../species/PHALE.html">
                <g transform="translate( 869.245, 1120 )">
                    <image x="10" y="-50" width="100" height="100" xlink:href="../data/thumbs/PHALE.png" />
                </g>
            </a>
            <a target="_blank" href="../species/FULGL.html">
                <g transform="translate( 805.066, 1040 )">
                    <image x="10" y="-50" width="100" height="100" xlink:href="../data/thumbs/FULGL.png" />
                </g>
            </a>
            <a target="_blank" href="../species/GALGA.html">
                <g transform="translate( 700.207, 560 )">
                    <image x="10" y="-50" width="100" height="100" xlink:href="../data/thumbs/GALGA.png" />
                </g>
            </a>
            <a target="_blank" href="../species/CHEMY.html">
                <g transform="translate( 764.437, 720 )">
                    <image x="10" y="-50" width="100" height="100" xlink:href="../data/thumbs/CHEMY.png" />
                </g>
            </a>
            <a target="_blank" href="../species/BUCRH.html">
                <g transform="translate( 821.418, 640 )">
                    <image x="10" y="-50" width="100" height="100" xlink:href="../data/thumbs/BUCRH.png" />
                </g>
            </a>
            <a target="_blank" href="../species/ALLIG.html">
                <g transform="translate( 465.047, 480 )">
                    <image x="10" y="-50" width="100" height="100" xlink:href="../data/thumbs/ALLIG.png" />
                </g>
            </a>
            <a target="_blank" href="../species/EURHE.html">
                <g transform="translate( 428.792, 400 )">
                    <image x="10" y="-50" width="100" height="100" xlink:href="../data/thumbs/EURHE.png" />
                </g>
            </a>
            <a target="_blank" href="../species/BALRE.html">
                <g transform="translate( 211.328, 320 )">
                    <image x="10" y="-50" width="100" height="100" xlink:href="../data/thumbs/BALRE.png" />
                </g>
            </a>
            <a target="_blank" href="../species/LEPDI.html">
                <g transform="translate( 442.872, 80 )">
                    <image x="10" y="-50" width="100" height="100" xlink:href="../data/thumbs/LEPDI.png" />
                </g>
            </a>
            <a target="_blank" href="../species/MELGA.html">
                <g transform="translate( 542.978, 240 )">
                    <image x="10" y="-50" width="100" height="100" xlink:href="../data/thumbs/MELGA.png" />
                </g>
            </a>
            <a target="_blank" href="../species/CUCCA.html">
                <g transform="translate( 677.196, 160 )">
                    <image x="10" y="-50" width="100" height="100" xlink:href="../data/thumbs/CUCCA.png" />
                </g>
            </a>
            <a target="_blank" href="../species/CORBR.html">
                <g transform="translate( 301.037, 0 )">
                    <image x="10" y="-50" width="100" height="100" xlink:href="../data/thumbs/CORBR.png" />
                </g>
            </a>
        </g>
    </g>
</svg>
